<svg xmlns="http://www.w3.org/2000/svg" viewBox="-475 50.6 750 522"><path fill="#B3B3B3" d="M-11 488.3h-.7v7.9h.7v-7.9zm2.6 2.1c.1-.1.1-.3.2-.4 0-.2.1-.3.1-.5v-1.2H-9v1.2h.5v.3c0 .1 0 .2-.1.3s-.1.2-.2.3l-.2.2v.5c.2 0 .3-.1.4-.2 0-.3.1-.4.2-.5zm2.6 2.6c0-.3 0-.6.1-.8.1-.3.2-.5.3-.7.1-.2.3-.3.5-.4s.5-.2.8-.2c.2 0 .4 0 .6.1s.3.2.4.3c.1.1.2.3.2.5s.1.4.1.5v3.8h.7v-3.2c0-.3 0-.5.1-.8 0-.2.1-.5.2-.7s.3-.3.5-.5c.2-.1.4-.2.7-.2.5 0 .8.1 1 .4.2.2.3.6.3 1.1v3.8h.7v-3.8c0-1.3-.6-2-1.9-2-.4 0-.7.1-1.1.3-.3.2-.6.5-.7.8-.1-.4-.3-.7-.6-.8-.3-.2-.6-.3-1-.3-.5 0-.8.1-1.1.3-.3.2-.5.5-.7.8v-1h-.6v5.7h.7v-3h-.2zm14.9-.4c-.1.1-.2.1-.3.1-.1 0-.2 0-.4.1-.4 0-.7.1-1.1.1s-.7.1-1 .2-.5.3-.7.5-.3.5-.3.9c0 .3 0 .5.1.7s.2.4.4.5l.6.3c.2.1.5.1.7.1.3 0 .5 0 .7-.1s.4-.1.5-.2c.2-.1.3-.2.4-.4.1-.1.3-.3.4-.5v.4s.1.2.1.3c.1.1.1.2.2.2s.2.1.4.1h.4v-.6H10c-.3 0-.4-.1-.4-.4v-3c0-.4-.1-.7-.2-.9-.1-.2-.3-.4-.5-.6-.2-.1-.4-.2-.7-.3-.2 0-.5-.1-.7-.1-.7 0-1.2.2-1.6.5s-.7.8-.7 1.5h.7c0-.5.2-.8.4-1 .3-.2.6-.3 1.1-.3H8s.3.1.5.2c.1.1.2.2.3.4.1.2.1.3.1.6 0 .2 0 .3-.1.4.5.2.4.3.3.3zm.3.4v.9c0 .3-.1.5-.2.7s-.2.4-.4.6c-.2.2-.4.3-.6.4s-.5.1-.8.1c-.2 0-.3 0-.5-.1s-.3-.1-.4-.2-.2-.2-.3-.4c-.1-.1-.1-.3-.1-.5 0-.3.1-.5.2-.6.2-.2.4-.3.6-.3.3-.1.5-.1.9-.2.3 0 .6-.1.9-.1.1 0 .2 0 .3-.1.2 0 .3-.1.4-.2zm2.7-.2c0-.3.1-.5.1-.8.1-.2.2-.4.4-.6.2-.2.3-.3.6-.4.2-.1.5-.1.7-.1.3 0 .5 0 .7.1s.3.2.4.4.2.3.2.5.1.4.1.7v3.5h.7v-3.7c0-.3 0-.6-.1-.9s-.2-.5-.3-.7c-.2-.2-.4-.3-.6-.4-.3-.1-.6-.2-1-.2-.2 0-.4 0-.6.1s-.4.1-.5.2c-.2.1-.3.2-.4.4-.1.1-.2.3-.3.5v-1h-.7v5.7h.7v-3.3h-.1zm8.6 2.6c.2.3.5.5.8.7s.7.2 1.2.2c.7 0 1.3-.2 1.7-.5.4-.4.7-.9.8-1.5h-.7c-.1.4-.3.8-.6 1.1-.3.3-.7.4-1.2.4-.3 0-.6-.1-.9-.2-.2-.1-.4-.3-.6-.5-.1-.2-.3-.5-.3-.7-.1-.3-.1-.5-.1-.8h4.4c0-.4 0-.8-.1-1.2-.1-.4-.2-.7-.4-1-.2-.3-.5-.5-.8-.7s-.7-.3-1.2-.3-.8.1-1.2.3c-.3.2-.6.4-.8.7-.2.3-.4.6-.5 1s-.1.7-.1 1.1 0 .8.1 1.1.3.5.5.8zm.3-3.2c.1-.2.2-.5.4-.6s.3-.3.6-.5c.2-.1.5-.2.8-.2s.5.1.7.2.4.3.6.5.3.4.4.6.1.5.1.8h-3.7c0-.3 0-.6.1-.8zm5.3 3.9l1.7-2.4 1.8 2.4h.9l-2.2-3 2-2.7h-.9l-1.6 2.2-1.6-2.2h-.9l2 2.7-2.2 2.9h1v.1zm5.8-1c.1.2.2.4.3.5.1.2.3.3.5.4s.4.2.6.2c.2.1.4.1.6.1.4 0 .8-.1 1.1-.2.3-.2.6-.4.8-.7.2-.3.4-.6.5-1s.2-.7.2-1.1-.1-.8-.2-1.1c-.1-.4-.3-.7-.5-1s-.5-.5-.8-.7-.7-.2-1.1-.2c-.5 0-.9.1-1.2.3-.4.2-.6.5-.8.9v-1.1h-.6v7.8h.7v-3.1h-.1zm.1-2.7c.1-.3.2-.6.3-.8s.4-.4.6-.5c.3-.1.6-.2 1-.2.3 0 .6.1.8.2.2.1.4.3.6.6.2.2.3.5.3.8.1.3.1.6.1.9s0 .6-.1.9-.2.5-.3.8c-.2.2-.3.4-.6.6-.2.1-.5.2-.8.2-.4 0-.7-.1-.9-.2-.3-.1-.5-.3-.6-.6-.2-.2-.3-.5-.3-.8-.1-.3-.1-.6-.1-.9-.1-.4-.1-.7 0-1zm5.8 3c.2.3.5.5.8.7s.7.2 1.2.2c.7 0 1.3-.2 1.7-.5.4-.4.7-.9.8-1.5h-.7c-.1.4-.3.8-.6 1.1-.3.3-.7.4-1.2.4-.3 0-.6-.1-.9-.2-.2-.1-.4-.3-.6-.5-.1-.2-.3-.5-.3-.7-.1-.3-.1-.5-.1-.8h4.4c0-.4 0-.8-.1-1.2-.1-.4-.2-.7-.4-1s-.5-.5-.8-.7-.7-.3-1.2-.3-.8.1-1.2.3c-.3.2-.6.4-.8.7-.2.3-.4.6-.5 1s-.1.7-.1 1.1 0 .8.1 1.1.3.5.5.8zm.3-3.2c.1-.2.2-.5.4-.6s.3-.3.6-.5c.2-.1.5-.2.8-.2s.5.1.7.2.4.3.6.5.3.4.4.6c.1.2.1.5.1.8h-3.7c0-.3 0-.6.1-.8zm7.9-1.1v-.7c-.5 0-1 .1-1.3.3-.4.2-.6.6-.8 1.1v-1.3h-.6v5.7h.7v-3c0-.3.1-.6.2-.8.1-.3.2-.5.4-.7s.4-.3.7-.4c.1-.2.4-.2.7-.2zm1.4-2.8h-.7v1.1h.7v-1.1zm0 2.2h-.7v5.7h.7v-5.7zm6 1.8c-.1-.4-.2-.7-.4-1s-.5-.5-.8-.7-.7-.3-1.2-.3-.8.1-1.2.3c-.3.2-.6.4-.8.7-.2.3-.4.6-.5 1s-.1.7-.1 1.1 0 .8.1 1.1.3.7.5 1 .5.5.8.7.7.2 1.2.2c.7 0 1.3-.2 1.7-.5.4-.4.7-.9.8-1.5H53c-.1.4-.3.8-.6 1.1-.3.3-.7.4-1.2.4-.3 0-.6-.1-.9-.2-.2-.1-.4-.3-.6-.5-.1-.2-.3-.5-.3-.7-.1-.3-.1-.5-.1-.8h4.4c0-.6 0-1-.1-1.4zm-4.3.6c0-.3.1-.5.2-.8.1-.2.2-.5.4-.6s.3-.3.6-.5c.2-.1.5-.2.8-.2s.5.1.7.2.4.3.6.5.3.4.4.6c.1.2.1.5.1.8h-3.8zm6-.1c0-.3.1-.5.1-.8.1-.2.2-.4.4-.6s.3-.3.6-.4c.2-.1.5-.1.7-.1.3 0 .5 0 .7.1s.3.2.4.4.2.3.2.5.1.4.1.7v3.5h.7v-3.7c0-.3 0-.6-.1-.9s-.2-.5-.3-.7c-.2-.2-.4-.3-.6-.4-.3-.1-.6-.2-1-.2-.2 0-.4 0-.6.1-.2.1-.4.1-.5.2-.2.1-.3.2-.4.4-.1.1-.2.3-.3.5v-1h-.7v5.7h.7v-3.3h-.1zm5.7 2.6c.2.3.5.5.8.6.3.2.7.2 1.1.2.6 0 1.2-.2 1.6-.6.4-.4.7-.9.8-1.6h-.7c0 .2-.1.5-.2.6-.1.2-.2.4-.4.5-.1.1-.3.3-.5.3-.2.1-.4.1-.6.1-.3 0-.6-.1-.9-.2-.2-.1-.5-.3-.6-.6-.2-.2-.3-.5-.4-.8-.1-.3-.1-.6-.1-.9s0-.6.1-.9.2-.5.4-.8l.6-.6c.2-.1.5-.2.9-.2.5 0 .8.1 1.1.4.3.2.4.6.5 1h.7c-.1-.7-.3-1.1-.8-1.5-.4-.3-.9-.5-1.5-.5-.4 0-.8.1-1.1.2-.3.2-.6.4-.8.6-.2.3-.4.6-.5 1s-.2.8-.2 1.2c0 .4.1.8.2 1.2.1.7.2 1 .5 1.3zm6.4.7c.3.2.7.2 1.2.2.7 0 1.3-.2 1.7-.5.4-.4.7-.9.8-1.5h-.7c-.1.4-.3.8-.6 1.1-.3.3-.7.4-1.2.4-.3 0-.6-.1-.9-.2-.2-.1-.4-.3-.6-.5-.1-.2-.3-.5-.3-.7-.1-.3-.1-.5-.1-.8h4.4c0-.4 0-.8-.1-1.2-.1-.4-.2-.7-.4-1s-.5-.5-.8-.7-.7-.3-1.2-.3-.8.1-1.2.3c-.3.2-.6.4-.8.7-.2.3-.4.6-.5 1s-.1.7-.1 1.1 0 .8.1 1.1.3.7.5 1c.2.1.5.3.8.5zm-.5-3.9c.1-.2.2-.5.4-.6s.3-.3.6-.5c.2-.1.5-.2.8-.2s.5.1.7.2.4.3.6.5.3.4.4.6c.1.2.1.5.1.8h-3.7c-.1-.3 0-.6.1-.8zm5.5 3.2c.2.3.5.5.8.7s.7.2 1.1.2c.2 0 .4 0 .6-.1.2-.1.4-.1.6-.3.2-.1.3-.2.5-.4s.3-.3.3-.5v1.1h.6v-7.9h-.7v3.3c-.1-.2-.2-.4-.3-.5-.1-.2-.3-.3-.5-.4s-.4-.2-.6-.2-.4-.1-.6-.1c-.4 0-.8.1-1.1.2-.3.2-.6.4-.8.7-.2.3-.4.6-.5 1s-.2.7-.2 1.1.1.8.2 1.1c.2.4.3.7.6 1zm.1-3c.1-.3.2-.5.3-.8.2-.2.3-.4.6-.6.2-.1.5-.2.8-.2.4 0 .7.1.9.2s.5.3.6.6c.2.2.3.5.3.8.1.3.1.6.1.9s0 .6-.1.9-.2.5-.3.8l-.6.6c-.3.1-.6.2-.9.2-.3 0-.6-.1-.8-.2s-.4-.3-.6-.6c-.2-.2-.3-.5-.3-.8-.1-.3-.1-.6-.1-.9s.1-.6.1-.9zm12.2.2c-.1.1-.2.1-.3.1s-.2 0-.4.1c-.4 0-.7.1-1.1.1-.4 0-.7.1-1 .2s-.5.3-.7.5-.3.5-.3.9c0 .3 0 .5.1.7s.2.4.4.5l.6.3c.2.1.5.1.7.1.3 0 .5 0 .7-.1s.4-.1.5-.2c.2-.1.3-.2.4-.4s.3-.3.4-.5v.4s.1.2.1.3c.1.1.1.2.2.2s.2.1.4.1h.4v-.6h-.2c-.3 0-.4-.1-.4-.4v-3c0-.4-.1-.7-.2-.9-.1-.2-.3-.4-.5-.6-.2-.1-.4-.2-.7-.3-.2 0-.5-.1-.7-.1-.7 0-1.2.2-1.6.5-.4.3-.7.8-.7 1.5h.7c0-.5.2-.8.4-1 .3-.2.6-.3 1.1-.3h.6c.2 0 .3.1.5.2.1.1.2.2.3.4.1.2.1.3.1.6 0 .2 0 .3-.1.4.5.2.4.3.3.3zm.3.4v.9c0 .3-.1.5-.2.7-.1.2-.2.4-.4.6s-.4.3-.6.4c-.2.1-.5.1-.8.1-.2 0-.3 0-.5-.1s-.3-.1-.4-.2-.2-.2-.3-.4c-.1-.1-.1-.3-.1-.5 0-.3.1-.5.2-.6.2-.2.4-.3.6-.3.3-.1.5-.1.9-.2.3 0 .6-.1.9-.1.1 0 .2 0 .3-.1.2 0 .3-.1.4-.2zm2.4 2.4c.2.3.5.5.8.7s.7.2 1.1.2c.2 0 .4 0 .6-.1.2-.1.4-.1.6-.3.2-.1.3-.2.5-.4.1-.2.3-.3.3-.5v1.1h.6v-7.9h-.7v3.3c-.1-.2-.2-.4-.3-.5-.1-.2-.3-.3-.5-.4s-.4-.2-.6-.2c-.2-.1-.4-.1-.6-.1-.4 0-.8.1-1.1.2-.3.2-.6.4-.8.7-.2.3-.4.6-.5 1s-.2.7-.2 1.1.1.8.2 1.1c.3.4.4.7.6 1zm.2-3c.1-.3.2-.5.3-.8.2-.2.3-.4.6-.6.2-.1.5-.2.8-.2.4 0 .7.1.9.2s.5.3.6.6c.2.2.3.5.3.8.1.3.1.6.1.9s0 .6-.1.9-.2.5-.3.8l-.6.6c-.3.1-.6.2-.9.2-.3 0-.6-.1-.8-.2s-.4-.3-.6-.6c-.2-.2-.3-.5-.3-.8-.1-.3-.1-.6-.1-.9s0-.6.1-.9zm8.1 3.7l2.1-5.7h-.7l-1.8 5-1.8-5h-.8l2.2 5.7h.8zm3.1-.7c.2.3.5.5.8.7s.7.2 1.2.2c.7 0 1.3-.2 1.7-.5.4-.4.7-.9.8-1.5h-.7c-.1.4-.3.8-.6 1.1-.3.3-.7.4-1.2.4-.3 0-.6-.1-.9-.2-.2-.1-.4-.3-.6-.5-.1-.2-.3-.5-.3-.7-.1-.3-.1-.5-.1-.8h4.4c0-.4 0-.8-.1-1.2-.1-.4-.2-.7-.4-1s-.5-.5-.8-.7-.7-.3-1.2-.3-.8.1-1.2.3c-.3.2-.6.4-.8.7-.2.3-.4.6-.5 1s-.1.7-.1 1.1 0 .8.1 1.1c.1.2.3.5.5.8zm.2-3.2c.1-.2.2-.5.4-.6s.3-.3.6-.5c.2-.1.5-.2.8-.2s.5.1.7.2.4.3.6.5c.2.2.3.4.4.6s.1.5.1.8h-3.7c0-.3.1-.6.1-.8zm8.8-.8c.1.2.2.3.2.5s.1.4.1.7v3.5h.7v-3.7c0-.3 0-.6-.1-.9s-.2-.5-.3-.7c-.2-.2-.4-.3-.6-.4-.3-.1-.6-.2-1-.2-.2 0-.4 0-.6.1-.2.1-.4.1-.5.2-.2.1-.3.2-.4.4-.1.1-.2.3-.3.5v-1h-.7v5.7h.7v-3.3c0-.3.1-.5.1-.8.1-.2.2-.4.4-.6s.3-.3.6-.4c.2-.1.5-.1.7-.1s.5 0 .7.1c0 .1.2.2.3.4zm2.7 3.5c0 .5.1.8.3 1s.5.3 1 .3h.6v-.6h-.6c-.2 0-.4-.1-.5-.2s-.1-.3-.1-.5v-3.8h1.2v-.6h-1.2v-1.7h-.7v1.7h-1v.6h1v3.8zm3.3.8c.2.2.4.3.6.4s.6.1.9.1c.4 0 .8-.1 1.2-.3.3-.2.6-.5.8-.9v1h.6v-5.7h-.7v3c0 .3 0 .6-.1.8-.1.3-.2.5-.3.7s-.3.4-.5.5-.5.2-.8.2c-.5 0-.9-.1-1.2-.4-.2-.3-.3-.7-.4-1.2v-3.7h-.7v3.7c0 .3 0 .6.1.9.2.5.3.7.5.9zm6.1-2.6c0-.3.1-.6.2-.8.1-.3.2-.5.4-.7s.4-.3.7-.4.5-.1.9-.1v-.7c-.5 0-1 .1-1.3.3-.4.2-.6.6-.8 1.1v-1.3h-.6v5.7h.7v-3.1h-.2zm2.9 2.3c.2.3.5.5.8.7s.7.2 1.2.2c.7 0 1.3-.2 1.7-.5.4-.4.7-.9.8-1.5h-.7c-.1.4-.3.8-.6 1.1-.3.3-.7.4-1.2.4-.3 0-.6-.1-.9-.2-.2-.1-.4-.3-.6-.5-.1-.2-.3-.5-.3-.7-.1-.3-.1-.5-.1-.8h4.4c0-.4 0-.8-.1-1.2-.1-.4-.2-.7-.4-1s-.5-.5-.8-.7-.7-.3-1.2-.3-.8.1-1.2.3c-.3.2-.6.4-.8.7-.2.3-.4.6-.5 1s-.1.7-.1 1.1 0 .8.1 1.1.3.5.5.8zm.3-3.2c.1-.2.2-.5.4-.6.2-.2.3-.3.6-.5.2-.1.5-.2.8-.2s.5.1.7.2.4.3.6.5.3.4.4.6c.1.2.1.5.1.8H123c-.1-.3 0-.6.1-.8zm8.6 2.7c0 .5.1.8.3 1s.5.3 1 .3h.6v-.6h-.6c-.2 0-.4-.1-.5-.2s-.1-.3-.1-.5v-3.8h1.2v-.6h-1.2v-1.7h-.7v1.7h-1v.6h1v3.8zm3.5-1.8c0-.3.1-.6.2-.8.1-.3.2-.5.4-.7s.4-.3.7-.4.5-.1.9-.1v-.7c-.5 0-1 .1-1.3.3-.4.2-.6.6-.8 1.1v-1.3h-.6v5.7h.7v-3.1h-.2zm6.2-.5c-.1.1-.2.1-.3.1s-.2 0-.4.1c-.4 0-.7.1-1.1.1-.4 0-.7.1-1 .2s-.5.3-.7.5-.3.5-.3.9c0 .3 0 .5.1.7s.2.4.4.5l.6.3c.2.1.5.1.7.1.3 0 .5 0 .7-.1s.4-.1.5-.2c.2-.1.3-.2.4-.4.1-.1.3-.3.4-.5v.4s.1.2.1.3c.1.1.1.2.2.2s.2.1.4.1h.4v-.6h-.2c-.3 0-.4-.1-.4-.4v-3c0-.4-.1-.7-.2-.9-.1-.2-.3-.4-.5-.6-.2-.1-.4-.2-.7-.3-.2 0-.5-.1-.7-.1-.7 0-1.2.2-1.6.5-.4.3-.7.8-.7 1.5h.7c0-.5.2-.8.4-1 .3-.2.6-.3 1.1-.3h.6c.2 0 .3.1.5.2.1.1.2.2.3.4.1.2.1.3.1.6 0 .2 0 .3-.1.4.4.2.4.3.3.3zm.2.4v.9c0 .3-.1.5-.2.7-.1.2-.2.4-.4.6s-.4.3-.6.4c-.2.1-.5.1-.8.1-.2 0-.3 0-.5-.1s-.3-.1-.4-.2c-.1-.1-.2-.2-.3-.4-.1-.1-.1-.3-.1-.5 0-.3.1-.5.2-.6.2-.2.4-.3.6-.3.3-.1.5-.1.9-.2.3 0 .6-.1.9-.1.1 0 .2 0 .3-.1.3 0 .4-.1.4-.2zm4.4 3.1l2.1-5.7h-.7l-1.8 5-1.8-5h-.8l2.2 5.7h.8zm3.9 0c.3.2.7.2 1.2.2.7 0 1.3-.2 1.7-.5.4-.4.7-.9.8-1.5h-.7c-.1.4-.3.8-.6 1.1-.3.3-.7.4-1.2.4-.3 0-.6-.1-.9-.2-.2-.1-.4-.3-.6-.5-.1-.2-.3-.5-.3-.7-.1-.3-.1-.5-.1-.8h4.4c0-.4 0-.8-.1-1.2-.1-.4-.2-.7-.4-1s-.5-.5-.8-.7-.7-.3-1.2-.3-.8.1-1.2.3c-.3.2-.6.4-.8.7-.2.3-.4.6-.5 1s-.1.7-.1 1.1 0 .8.1 1.1.3.7.5 1c.2.1.5.3.8.5zm-.5-3.9c.1-.2.2-.5.4-.6.2-.2.3-.3.6-.5.2-.1.5-.2.8-.2s.5.1.7.2.4.3.6.5.3.4.4.6c.1.2.1.5.1.8h-3.7c-.1-.3 0-.6.1-.8zm5.8-3.9h-.7v7.9h.7v-7.9zm2 0h-.7v7.9h.7v-7.9zm1.7 7.1c.2.3.5.5.8.7s.7.2 1.2.2c.7 0 1.3-.2 1.7-.5.4-.4.7-.9.8-1.5h-.7c-.1.4-.3.8-.6 1.1-.3.3-.7.4-1.2.4-.3 0-.6-.1-.9-.2-.2-.1-.4-.3-.6-.5-.1-.2-.3-.5-.3-.7-.1-.3-.1-.5-.1-.8h4.4c0-.4 0-.8-.1-1.2-.1-.4-.2-.7-.4-1s-.5-.5-.8-.7-.7-.3-1.2-.3-.8.1-1.2.3c-.3.2-.6.4-.8.7-.2.3-.4.6-.5 1s-.1.7-.1 1.1 0 .8.1 1.1.3.5.5.8zm.3-3.2c.1-.2.2-.5.4-.6s.3-.3.6-.5c.2-.1.5-.2.8-.2s.5.1.7.2.4.3.6.5.3.4.4.6c.1.2.1.5.1.8H159c0-.3.1-.6.2-.8zm5.8.9c0-.3.1-.6.2-.8.1-.3.2-.5.4-.7s.4-.3.7-.4.5-.1.9-.1v-.7c-.5 0-1 .1-1.3.3-.4.2-.6.6-.8 1.1v-1.3h-.6v5.7h.7v-3.1h-.2zm2.8 4c.1-.1.1-.3.2-.4 0-.2.1-.3.1-.5V495h-.9v1.2h.5v.3c0 .1 0 .2-.1.3 0 .1-.1.2-.2.3l-.2.2v.5c.2 0 .3-.1.4-.2 0-.3.1-.4.2-.5zM-7.9 511.4c.1-.2.2-.5.2-.8 0-.2 0-.5-.1-.6-.1-.2-.2-.3-.4-.5-.2-.1-.3-.2-.5-.3-.2-.1-.4-.1-.6-.2l-.9-.2c-.1 0-.2-.1-.4-.1-.1 0-.3-.1-.4-.2l-.3-.3c-.1-.1-.1-.2-.1-.4s0-.3.1-.5l.3-.3c.1-.1.3-.1.4-.2h.5s.4 0 .6.1c.2 0 .3.1.5.2.1.1.2.2.3.4.1.2.1.3.1.6h.7c0-.3-.1-.6-.2-.8-.1-.2-.3-.4-.4-.6-.2-.2-.4-.3-.6-.3-.2-.1-.5-.1-.8-.1-.2 0-.5 0-.8.1s-.5.2-.7.3c-.2.1-.4.3-.5.5s-.2.5-.2.7 0 .4.1.6.2.3.3.4c.1.1.3.2.5.3.2.1.4.1.6.2l.9.2c.2 0 .3.1.5.1.2.1.3.1.4.2l.3.3c.1.1.1.3.1.4 0 .2 0 .4-.1.5s-.2.2-.4.3-.3.2-.5.2-.4.1-.5.1c-.5 0-.8-.1-1.2-.4-.3-.2-.5-.6-.5-1.1h-.7c.1.7.3 1.2.7 1.5.4.3 1 .5 1.6.5.3 0 .5 0 .8-.1.3-.1.5-.2.7-.3.3 0 .5-.2.6-.4zm1.9-.3c.1.2.2.4.3.5.1.2.3.3.5.4.2.1.4.2.6.2.2.1.4.1.6.1.4 0 .8-.1 1.1-.2.3-.2.6-.4.8-.7.2-.3.4-.6.5-1s.2-.7.2-1.1-.1-.8-.2-1.1c-.1-.4-.3-.7-.5-1s-.5-.5-.8-.7-.7-.2-1.1-.2c-.5 0-.9.1-1.2.3-.4.2-.6.5-.8.9v-1.1h-.6v7.8h.7v-3.1H-6zm.1-2.7c.1-.3.2-.6.3-.8s.4-.4.6-.5c.3-.1.6-.2 1-.2.3 0 .6.1.8.2.2.1.4.3.6.6.2.2.3.5.3.8.1.3.1.6.1.9s0 .6-.1.9-.2.5-.3.8c-.2.2-.3.4-.6.6-.2.1-.5.2-.8.2-.4 0-.7-.1-.9-.2-.3-.1-.5-.3-.6-.6-.2-.2-.3-.5-.3-.8-.1-.3-.1-.6-.1-.9-.1-.4-.1-.7 0-1zm5.8-1.2c-.2.3-.4.6-.5 1s-.1.7-.1 1.1 0 .8.1 1.1.3.7.5 1 .5.5.8.7c.3.2.7.2 1.2.2.7 0 1.3-.2 1.7-.5.4-.4.7-.9.8-1.5h-.7c-.1.4-.3.8-.6 1.1-.3.3-.7.4-1.2.4-.3 0-.6-.1-.9-.2-.2-.1-.4-.3-.6-.5-.1-.2-.3-.5-.3-.7-.1-.3-.1-.5-.1-.8h4.4c0-.4 0-.8-.1-1.2-.1-.4-.2-.7-.4-1s-.5-.5-.8-.7-.7-.3-1.2-.3-.8.1-1.2.3c-.3 0-.5.3-.8.5zm2-.3c.3 0 .5.1.7.2s.4.3.6.5.3.4.4.6.1.5.1.8H0c0-.3.1-.5.2-.8.1-.2.2-.5.4-.6s.3-.3.6-.5c.2-.2.4-.2.7-.2zm4.7 5.2c.3.2.7.2 1.1.2.6 0 1.2-.2 1.6-.6s.7-.9.8-1.6h-.7c0 .2-.1.5-.2.6-.1.2-.2.4-.4.5-.1.1-.3.3-.5.3-.2.1-.4.1-.6.1-.3 0-.6-.1-.9-.2-.2-.1-.5-.3-.6-.6-.2-.2-.3-.5-.4-.8s-.1-.6-.1-.9 0-.6.1-.9.2-.5.4-.8l.6-.6c.2-.1.5-.2.9-.2.5 0 .8.1 1.1.4.3.2.4.6.5 1h.7c-.1-.7-.3-1.1-.8-1.5-.4-.3-.9-.5-1.5-.5-.4 0-.8.1-1.1.2-.3.2-.6.4-.8.6-.2.3-.4.6-.5 1s-.2.8-.2 1.2c0 .4.1.8.2 1.2.1.4.3.7.5 1 .2.5.5.7.8.9zm5.1-7.8H11v1.1h.7v-1.1zm0 2.2H11v5.7h.7v-5.7zm2 .3c-.4.3-.7.8-.7 1.5h.7c0-.5.2-.8.4-1 .3-.2.6-.3 1.1-.3h.6s.3.1.5.2c.1.1.2.2.3.4.1.2.1.3.1.6 0 .2 0 .3-.1.4 0 .1-.1.2-.2.2-.1.1-.2.1-.3.1-.1 0-.2 0-.4.1-.4 0-.7.1-1.1.1s-.7.1-1 .2-.5.3-.7.5-.3.5-.3.9c0 .3 0 .5.1.7s.2.4.4.5l.6.3s.5.1.7.1c.3 0 .5 0 .7-.1.2-.1.4-.1.5-.2.2-.1.3-.2.4-.4.1-.1.3-.3.4-.5v.4s.1.2.1.3c.1.1.1.2.2.2s.2.1.4.1h.4v-.6h-.2c-.3 0-.4-.1-.4-.4v-3c0-.4-.1-.7-.2-.9-.1-.2-.3-.4-.5-.6-.2-.1-.4-.2-.7-.3-.2 0-.5-.1-.7-.1-.1.1-.7.3-1.1.6zm3 3.1c0 .3-.1.5-.2.7s-.2.4-.4.6c-.2.2-.4.3-.6.4s-.5.1-.8.1c-.2 0-.3 0-.5-.1s-.3-.1-.4-.2-.2-.2-.3-.4c-.1-.1-.1-.3-.1-.5 0-.3.1-.5.2-.6.2-.2.4-.3.6-.3.3-.1.5-.1.9-.2.3 0 .6-.1.9-.1.1 0 .2 0 .3-.1.1 0 .2-.1.3-.2v.9h.1zm2.8-5.6h-.7v7.9h.7v-7.9zm2 0h-.7v1.1h.7v-1.1zm-.7 7.8h.7v-5.7h-.7v5.7zm6.3-.5h-3.9L27 507v-.5h-4.3v.6h3.5l-3.7 4.5v.6h4.7v-.6h-.1zm1.6-7.3H28v1.1h.7v-1.1zm-.7 7.8h.7v-5.7H28v5.7zm2.7-4.7v-1H30v5.7h.7v-3.3c0-.3.1-.5.1-.8.1-.2.2-.4.4-.6.2-.2.3-.3.6-.4.2-.1.5-.1.7-.1.3 0 .5 0 .7.1s.3.2.4.4c.1.2.2.3.2.5s.1.4.1.7v3.5h.7v-3.7c0-.3 0-.6-.1-.9s-.2-.5-.3-.7c-.2-.2-.4-.3-.6-.4-.3-.1-.6-.2-1-.2-.2 0-.4 0-.6.1s-.4.1-.5.2-.3.2-.4.4c-.2.2-.3.4-.4.5zm9.9 5.4c.1-.3.1-.7.1-1.1v-5.2H40v1c-.1-.3-.4-.6-.7-.8-.3-.2-.7-.3-1.1-.3-.4 0-.8.1-1.1.2-.3.2-.6.4-.8.6-.2.3-.4.6-.5.9s-.2.7-.2 1.1 0 .8.1 1.1c.1.4.2.7.5.9.2.3.5.5.8.6.3.2.7.2 1.2.2.4 0 .8-.1 1.1-.3.3-.2.6-.5.7-.8v.8c0 .7-.1 1.2-.4 1.6-.3.4-.8.6-1.4.6-.2 0-.4 0-.6-.1-.2 0-.4-.1-.5-.2-.2-.1-.3-.2-.4-.3s-.2-.3-.2-.5h-.7c0 .3.1.6.2.8.1.2.3.4.5.5.2.1.5.2.7.3.3.1.5.1.8.1.5 0 .9-.1 1.2-.2.3-.1.6-.3.8-.5.3-.4.5-.6.6-1zm-.7-2.7c-.1.3-.2.5-.3.7-.2.2-.3.4-.6.5-.2.1-.5.2-.8.2s-.6-.1-.8-.2-.4-.3-.6-.5-.3-.4-.3-.7c-.1-.3-.1-.5-.1-.8s0-.6.1-.9.2-.5.3-.8c.2-.2.3-.4.6-.5.2-.1.5-.2.8-.2s.6.1.8.2.4.3.6.6c.1.2.3.5.3.8.1.3.1.6.1.8s0 .5-.1.8zm5.2 2h.7v-5.7h-.7v5.7zm.7-7.8h-.7v1.1h.7v-1.1zm3 2.7c.2-.1.5-.1.7-.1.3 0 .5 0 .7.1s.3.2.4.4c.1.2.2.3.2.5s.1.4.1.7v3.5h.7v-3.7c0-.3 0-.6-.1-.9s-.2-.5-.3-.7c-.2-.2-.4-.3-.6-.4-.3-.1-.6-.2-1-.2-.2 0-.4 0-.6.1-.2.1-.4.1-.5.2-.2.1-.3.2-.4.4-.1.1-.2.3-.3.5v-1h-.7v5.7h.7v-3.3c0-.3.1-.5.1-.8.1-.2.2-.4.4-.6.1-.1.3-.3.5-.4zm8.3-1.5c0-.1 0-.2.1-.3 0-.1.1-.2.2-.2.1-.1.2-.1.4-.1h.5v-.6h-.6c-.3 0-.5 0-.7.1s-.3.2-.4.3c-.1.1-.2.3-.2.5s-.1.4-.1.7v.5h-1v.6h1v5.1h.7V507h1.1v-.6H57v-.5c.1-.1.1-.2.1-.4zm2.5-1.2h-.7v1.1h.7v-1.1zm-.7 7.8h.7v-5.7h-.7v5.7zm6.2-5.2c-.2-.2-.4-.3-.6-.4-.3-.1-.6-.2-1-.2-.2 0-.4 0-.6.1-.2.1-.4.1-.5.2-.2.1-.3.2-.4.4-.1.1-.2.3-.3.5v-1H61v5.7h.7v-3.3c0-.3.1-.5.1-.8.1-.2.2-.4.4-.6s.3-.3.6-.4.5-.1.7-.1c.3 0 .5 0 .7.1s.3.2.4.4c.1.2.2.3.2.5s.1.4.1.7v3.5h.7v-3.7c0-.3 0-.6-.1-.9-.1-.3-.2-.5-.4-.7zm4.1 5.4c.2 0 .4 0 .6-.1.2-.1.4-.1.6-.3.2-.1.3-.2.5-.4.1-.2.3-.3.3-.5v1.1h.6v-7.9h-.7v3.3c-.1-.2-.2-.4-.3-.5-.1-.2-.3-.3-.5-.4s-.4-.2-.6-.2c-.2-.1-.4-.1-.6-.1-.4 0-.8.1-1.1.2-.3.2-.6.4-.8.7-.2.3-.4.6-.5 1s-.2.7-.2 1.1.1.8.2 1.1c.1.4.3.7.5 1s.5.5.8.7c.4.1.7.2 1.2.2zm-1.5-1.3c-.2-.2-.3-.5-.3-.8-.1-.3-.1-.6-.1-.9s0-.6.1-.9.2-.5.3-.8c.2-.2.3-.4.6-.6.2-.1.5-.2.8-.2.4 0 .7.1.9.2s.5.3.6.6c.2.2.3.5.3.8.1.3.1.6.1.9s0 .6-.1.9-.2.5-.3.8l-.6.6c-.3.1-.6.2-.9.2-.3 0-.6-.1-.8-.2l-.6-.6zm6.2-6.7h-.7v1.1h.7v-1.1zm-.7 7.8h.7v-5.7h-.7v5.7zm3-5.1c-.1.1-.2.3-.3.5v-1h-.7v5.7h.7v-3.3c0-.3.1-.5.1-.8.1-.2.2-.4.4-.6s.3-.3.6-.4c.2-.1.5-.1.7-.1.3 0 .5 0 .7.1s.3.2.4.4c.1.2.2.3.2.5s.1.4.1.7v3.5h.7v-3.7c0-.3 0-.6-.1-.9s-.2-.5-.3-.7c-.2-.2-.4-.3-.6-.4-.3-.1-.6-.2-1-.2-.2 0-.4 0-.6.1-.2.1-.4.1-.5.2s-.4.2-.5.4zm5.2 4.2c.2.3.5.5.8.6.3.2.7.2 1.2.2.4 0 .8-.1 1.1-.3.3-.2.6-.5.7-.8v.8c0 .7-.1 1.2-.4 1.6-.3.4-.8.6-1.4.6-.2 0-.4 0-.6-.1-.2 0-.4-.1-.5-.2-.2-.1-.3-.2-.4-.3-.1-.1-.2-.3-.2-.5H81c0 .3.1.6.2.8.1.2.3.4.5.5.2.1.5.2.7.3.3.1.5.1.8.1.5 0 .9-.1 1.2-.2.3-.1.6-.3.8-.5s.3-.5.4-.9c.1-.3.1-.7.1-1.1v-5.2H85v1c-.1-.3-.4-.6-.7-.8-.3-.2-.7-.3-1.1-.3-.4 0-.8.1-1.1.2-.3.2-.6.4-.8.6-.2.3-.4.6-.5.9s-.2.7-.2 1.1 0 .8.1 1.1c.4.3.5.6.7.8zm.2-2.8c.1-.3.2-.5.3-.8.2-.2.3-.4.6-.5.2-.1.5-.2.8-.2s.6.1.8.2.4.3.6.6c.1.2.3.5.3.8.1.3.1.6.1.8 0 .3 0 .6-.1.8-.1.3-.2.5-.3.7s-.3.4-.6.5c-.2.1-.5.2-.8.2s-.6-.1-.8-.2-.4-.3-.6-.5-.3-.4-.3-.7c-.1-.3-.1-.5-.1-.8 0-.4.1-.6.1-.9zm10.9-1.4v-.6h-1.2v-1.7h-.7v1.7h-1v.6h1v3.9c0 .5.1.8.3 1s.5.3 1 .3h.6v-.6h-.6c-.2 0-.4-.1-.5-.2s-.1-.3-.1-.5v-3.8h1.2v-.1zm4.6-.5c-.3-.1-.6-.2-1-.2-.2 0-.4 0-.6.1-.2.1-.4.1-.5.2-.2.1-.3.2-.4.4-.1.1-.2.3-.3.5v-3.2h-.7v7.9h.7v-3.3c0-.3.1-.5.1-.8.1-.2.2-.4.4-.6s.3-.3.6-.4c.2-.1.5-.1.7-.1.3 0 .5 0 .7.1s.3.2.4.4.2.3.2.5.1.4.1.7v3.5h.7v-3.7c0-.3 0-.6-.1-.9s-.2-.5-.3-.7c-.3-.2-.5-.3-.7-.4zm4.6-.2c-.5 0-.8.1-1.2.3-.3.2-.6.4-.8.7-.2.3-.4.6-.5 1s-.1.7-.1 1.1 0 .8.1 1.1c.1.4.3.7.5 1s.5.5.8.7.7.2 1.2.2c.7 0 1.3-.2 1.7-.5.4-.4.7-.9.8-1.5h-.7c-.1.4-.3.8-.6 1.1-.3.3-.7.4-1.2.4-.3 0-.6-.1-.9-.2-.2-.1-.4-.3-.6-.5-.1-.2-.3-.5-.3-.7-.1-.3-.1-.5-.1-.8h4.4c0-.4 0-.8-.1-1.2-.1-.4-.2-.7-.4-1s-.5-.5-.8-.7c-.3-.4-.7-.5-1.2-.5zm1.7 1.8c.1.2.1.5.1.8h-3.7c0-.3.1-.5.2-.8.1-.2.2-.5.4-.6s.3-.3.6-.5c.2-.1.5-.2.8-.2s.5.1.7.2.4.3.6.5.2.4.3.6zm9.4-.9c-.2-.3-.5-.5-.8-.7s-.7-.2-1.1-.2c-.2 0-.4 0-.6.1-.2.1-.4.1-.6.2-.2.1-.3.2-.5.4s-.2.3-.3.5v-3.3h-.7v7.9h.6V511c.2.4.4.7.8.9.4.2.8.3 1.2.3s.8-.1 1.1-.2c.3-.2.6-.4.8-.7.2-.3.4-.6.5-1s.2-.7.2-1.1-.1-.8-.2-1.1c0-.3-.2-.6-.4-.9zm-.1 3c-.1.3-.2.5-.3.8-.2.2-.3.4-.6.6-.2.1-.5.2-.8.2-.4 0-.7-.1-.9-.2-.3-.1-.5-.3-.6-.6-.2-.2-.3-.5-.3-.8-.1-.3-.1-.6-.1-.9s0-.6.1-.9.2-.5.3-.8l.6-.6s.6-.2.9-.2c.3 0 .6.1.8.2s.4.3.6.6c.2.2.3.5.3.8.1.3.1.6.1.9s-.1.6-.1.9zm2.9-3.6c-.3.2-.6.4-.8.7-.2.3-.4.6-.5 1s-.1.7-.1 1.1 0 .8.1 1.1.3.7.5 1 .5.5.8.7.7.2 1.2.2c.7 0 1.3-.2 1.7-.5.4-.4.7-.9.8-1.5h-.7c-.1.4-.3.8-.6 1.1-.3.3-.7.4-1.2.4-.3 0-.6-.1-.9-.2-.2-.1-.4-.3-.6-.5-.1-.2-.3-.5-.3-.7-.1-.3-.1-.5-.1-.8h4.4c0-.4 0-.8-.1-1.2-.1-.4-.2-.7-.4-1s-.5-.5-.8-.7-.7-.3-1.2-.3c-.4-.2-.8-.1-1.2.1zm2.5.9c.2.2.3.4.4.6.1.2.1.5.1.8h-3.7c0-.3.1-.5.2-.8.1-.2.2-.5.4-.6.2-.2.3-.3.6-.5.2-.1.5-.2.8-.2s.5.1.7.2c.2.2.4.3.5.5zm5.2 4c-.2.1-.3.2-.5.2s-.4.1-.5.1c-.5 0-.8-.1-1.2-.4-.3-.2-.5-.6-.5-1.1h-.7c.1.7.3 1.2.7 1.5s1 .5 1.6.5c.3 0 .5 0 .8-.1.3-.1.5-.2.7-.3s.4-.3.5-.5.2-.5.2-.8c0-.2 0-.5-.1-.6-.1-.2-.2-.3-.4-.5-.2-.1-.3-.2-.5-.3-.2-.1-.4-.1-.6-.2l-.9-.2c-.1 0-.2-.1-.4-.1-.1 0-.3-.1-.4-.2l-.3-.3c-.1-.1-.1-.2-.1-.4s0-.3.1-.5l.3-.3c.1-.1.3-.1.4-.2h.5s.4 0 .6.1c.2 0 .3.1.5.2.1.1.2.2.3.4.1.2.1.3.1.6h.7c0-.3-.1-.6-.2-.8-.1-.2-.3-.4-.4-.6-.2-.2-.4-.3-.6-.3-.2-.1-.5-.1-.8-.1-.2 0-.5 0-.8.1s-.5.2-.7.3c-.2.1-.4.3-.5.5s-.2.5-.2.7 0 .4.1.6.2.3.3.4.3.2.5.3c.2.1.4.1.6.2l.9.2c.2 0 .3.1.5.1.2.1.3.1.4.2l.3.3c.1.1.1.3.1.4 0 .2 0 .4-.1.5 0 .2-.1.3-.3.4zm4.5-4.5v-.6h-1.2v-1.7h-.7v1.7h-1v.6h1v3.9c0 .5.1.8.3 1s.5.3 1 .3h.6v-.6h-.6c-.2 0-.4-.1-.5-.2s-.1-.3-.1-.5v-3.8h1.2v-.1zm7.6 5c.2-.1.3-.2.5-.4.1-.2.3-.3.3-.5v1.1h.6v-7.9h-.7v3.3c-.1-.2-.2-.4-.3-.5-.1-.2-.3-.3-.5-.4s-.4-.2-.6-.2c-.2-.1-.4-.1-.6-.1-.4 0-.8.1-1.1.2-.3.2-.6.4-.8.7-.2.3-.4.6-.5 1s-.2.7-.2 1.1.1.8.2 1.1c.1.4.3.7.5 1s.5.5.8.7.7.2 1.1.2c.2 0 .4 0 .6-.1.3-.1.5-.2.7-.3zm-2.1-.5c-.2-.1-.4-.3-.6-.6-.2-.2-.3-.5-.3-.8-.1-.3-.1-.6-.1-.9s0-.6.1-.9.2-.5.3-.8c.2-.2.3-.4.6-.6.2-.1.5-.2.8-.2.4 0 .7.1.9.2s.5.3.6.6c.2.2.3.5.3.8.1.3.1.6.1.9s0 .6-.1.9-.2.5-.3.8l-.6.6c-.3.1-.6.2-.9.2-.3 0-.6 0-.8-.2zm9.5-3.2c-.1-.4-.2-.7-.4-1s-.5-.5-.8-.7-.7-.3-1.2-.3-.8.1-1.2.3c-.3.2-.6.4-.8.7-.2.3-.4.6-.5 1s-.1.7-.1 1.1 0 .8.1 1.1.3.7.5 1 .5.5.8.7.7.2 1.2.2c.7 0 1.3-.2 1.7-.5.4-.4.7-.9.8-1.5h-.7c-.1.4-.3.8-.6 1.1-.3.3-.7.4-1.2.4-.3 0-.6-.1-.9-.2-.2-.1-.4-.3-.6-.5-.1-.2-.3-.5-.3-.7-.1-.3-.1-.5-.1-.8h4.4c0-.6 0-1-.1-1.4zm-4.2.6c0-.3.1-.5.2-.8.1-.2.2-.5.4-.6s.3-.3.6-.5c.2-.1.5-.2.8-.2s.5.1.7.2.4.3.6.5.3.4.4.6c.1.2.1.5.1.8h-3.8zm9.4-1.7c-.1-.2-.3-.4-.5-.6-.2-.1-.4-.2-.7-.3-.2 0-.5-.1-.7-.1-.7 0-1.2.2-1.6.5-.4.3-.7.8-.7 1.5h.7c0-.5.2-.8.4-1 .3-.2.6-.3 1.1-.3h.6c.2 0 .3.1.5.2.1.1.2.2.3.4.1.2.1.3.1.6 0 .2 0 .3-.1.4 0 .1-.1.2-.2.2-.1.1-.2.1-.3.1s-.2 0-.4.1c-.4 0-.7.1-1.1.1-.4 0-.7.1-1 .2s-.5.3-.7.5-.3.5-.3.9c0 .3 0 .5.1.7s.2.4.4.5l.6.3c.2.1.5.1.7.1.3 0 .5 0 .7-.1.2-.1.4-.1.5-.2.2-.1.3-.2.4-.4.1-.1.3-.3.4-.5v.4s.1.2.1.3c.1.1.1.2.2.2s.2.1.4.1h.4v-.6h-.2c-.3 0-.4-.1-.4-.4v-3c.5-.3.4-.6.3-.8zm-.5 2.7c0 .3-.1.5-.2.7-.1.2-.2.4-.4.6s-.4.3-.6.4c-.2.1-.5.1-.8.1-.2 0-.3 0-.5-.1s-.3-.1-.4-.2c-.1-.1-.2-.2-.3-.4-.1-.1-.1-.3-.1-.5 0-.3.1-.5.2-.6.2-.2.4-.3.6-.3.3-.1.5-.1.9-.2.3 0 .6-.1.9-.1.1 0 .2 0 .3-.1.1 0 .2-.1.3-.2l.1.9zm2.1 2.2h.7v-7.9h-.7v7.9zm6.1-.7c.1-.2.2-.5.2-.8 0-.2 0-.5-.1-.6-.1-.2-.2-.3-.4-.5-.2-.1-.3-.2-.5-.3-.2-.1-.4-.1-.6-.2l-.9-.2c-.1 0-.2-.1-.4-.1-.1 0-.3-.1-.4-.2l-.3-.3c-.1-.1-.1-.2-.1-.4s0-.3.1-.5l.3-.3c.1-.1.3-.1.4-.2h.5s.4 0 .6.1c.2 0 .3.1.5.2.1.1.2.2.3.4.1.2.1.3.1.6h.7c0-.3-.1-.6-.2-.8-.1-.2-.3-.4-.4-.6-.2-.2-.4-.3-.6-.3-.2-.1-.5-.1-.8-.1-.2 0-.5 0-.8.1s-.5.2-.7.3c-.2.1-.4.3-.5.5s-.2.5-.2.7 0 .4.1.6.2.3.3.4.3.2.5.3c.2.1.4.1.6.2l.9.2c.2 0 .3.1.5.1.2.1.3.1.4.2l.3.3c.1.1.1.3.1.4 0 .2 0 .4-.1.5s-.2.2-.4.3c-.2.1-.3.2-.5.2s-.4.1-.5.1c-.5 0-.8-.1-1.2-.4-.3-.2-.5-.6-.5-1.1h-.7c.1.7.3 1.2.7 1.5s1 .5 1.6.5c.3 0 .5 0 .8-.1.3-.1.5-.2.7-.3.3 0 .5-.2.6-.4zm5.3.7V507h1.1v-.6H161v-.5-.4s0-.2.1-.3c0-.1.1-.2.2-.2.1-.1.2-.1.4-.1h.5v-.6h-.6c-.3 0-.5 0-.7.1s-.3.2-.4.3c-.1.1-.2.3-.2.5s-.1.4-.1.7v.5h-1v.6h1v5.1h.8zm6.7-1.6c.1-.4.2-.7.2-1.2 0-.4-.1-.8-.2-1.2-.1-.4-.3-.7-.5-1s-.5-.5-.8-.6c-.3-.2-.7-.2-1.1-.2-.4 0-.8.1-1.1.2-.3.2-.6.4-.8.6-.2.3-.4.6-.5 1s-.2.8-.2 1.2c0 .4.1.8.2 1.2.1.4.3.7.5 1s.5.5.8.6c.3.2.7.2 1.1.2.4 0 .8-.1 1.1-.2.3-.2.6-.4.8-.6.2-.4.4-.7.5-1zm-1 .5l-.6.6c-.2.1-.5.2-.9.2s-.6-.1-.9-.2c-.2-.1-.5-.3-.6-.6-.2-.2-.3-.5-.4-.8-.1-.3-.1-.6-.1-.9s0-.6.1-.9.2-.5.4-.8l.6-.6c.2-.1.5-.2.9-.2s.6.1.9.2c.2.1.5.3.6.6.2.2.3.5.4.8.1.3.1.6.1.9s0 .6-.1.9c-.1.3-.2.5-.4.8zm2.9-3.2v-1.3h-.6v5.7h.7v-3c0-.3.1-.6.2-.8.1-.3.2-.5.4-.7s.4-.3.7-.4.5-.1.9-.1v-.7c-.5 0-1 .1-1.3.3-.6.2-.8.5-1 1zm10.2 3.6c.2-.3.4-.6.5-1s.2-.7.2-1.2c0-.4-.1-.8-.2-1.2-.1-.4-.3-.7-.5-1s-.5-.5-.8-.6c-.3-.2-.7-.2-1.1-.2-.4 0-.8.1-1.1.2-.3.2-.6.4-.8.6-.2.3-.4.6-.5 1s-.2.8-.2 1.2c0 .4.1.8.2 1.2.1.4.3.7.5 1s.5.5.8.6c.3.2.7.2 1.1.2.4 0 .8-.1 1.1-.2.3-.1.6-.3.8-.6zm-2 .3c-.3 0-.6-.1-.9-.2-.2-.1-.5-.3-.6-.6-.2-.2-.3-.5-.4-.8-.1-.3-.1-.6-.1-.9s0-.6.1-.9.2-.5.4-.8l.6-.6c.2-.1.5-.2.9-.2.3 0 .6.1.9.2.2.1.5.3.6.6.2.2.3.5.4.8.1.3.1.6.1.9s0 .6-.1.9-.2.5-.4.8l-.6.6c-.2.2-.5.2-.9.2zm6.8.4h.7V507h1.1v-.6h-1.1v-.5-.4s0-.2.1-.3c0-.1.1-.2.2-.2.1-.1.2-.1.4-.1h.5v-.6h-.6c-.3 0-.5 0-.7.1s-.3.2-.4.3c-.1.1-.2.3-.2.5s-.1.4-.1.7v.5h-1.9v-.5-.4s0-.2.1-.3c0-.1.1-.2.2-.2.1-.1.2-.1.4-.1h.5v-.6h-.6c-.3 0-.5 0-.7.1s-.3.2-.4.3c-.1.1-.2.3-.2.5s-.1.4-.1.7v.5h-1v.6h1v5.1h.7V507H184.4v5.1h.2zm-195.5 8.7h-.7v1.7h-1v.6h1v3.9c0 .5.1.8.3 1 .2.2.5.3 1 .3h.6v-.7h-.6s-.4-.1-.5-.2c-.1-.1-.1-.3-.1-.5v-3.8h1.2v-.6h-1.2v-1.7zm2.9 4c0-.3.1-.5.1-.8.1-.2.2-.4.4-.6.2-.2.3-.3.6-.4.2-.1.5-.1.7-.1.3 0 .5 0 .7.1.2.1.3.2.4.4s.2.3.2.5.1.4.1.7v3.5h.7v-3.7c0-.3 0-.6-.1-.9s-.2-.5-.3-.7c-.2-.2-.4-.3-.6-.4-.3-.1-.6-.2-1-.2-.2 0-.4 0-.6.1-.2.1-.4.1-.5.2-.2.1-.3.2-.4.4-.1.1-.2.3-.3.5v-3.2h-.7v7.9h.7v-3.3H-8zm9.8-.5c-.1-.4-.2-.7-.4-1-.2-.3-.5-.5-.8-.7s-.7-.3-1.2-.3-.8.1-1.2.3c-.3.2-.6.4-.8.7-.2.3-.4.6-.5 1-.1.4-.1.7-.1 1.1 0 .4 0 .8.1 1.1.1.3.3.7.5 1s.5.5.8.7.7.2 1.2.2c.7 0 1.3-.2 1.7-.5.4-.4.7-.9.8-1.5h-.7c-.1.4-.3.8-.6 1.1-.3.3-.7.4-1.2.4-.3 0-.6-.1-.9-.2-.2-.1-.4-.3-.6-.5-.1-.2-.3-.5-.3-.7-.1-.3-.1-.5-.1-.8h4.4c.1-.6 0-1-.1-1.4zm-4.2.6c0-.3.1-.5.2-.8.1-.2.2-.5.4-.6.2-.1.3-.3.6-.5.2-.1.5-.2.8-.2s.5.1.7.2c.2.1.4.3.6.5s.3.4.4.6.1.5.1.8h-3.8zm13-1.7c-.2-.3-.5-.5-.8-.7s-.7-.2-1.1-.2c-.2 0-.4 0-.6.1-.2.1-.4.1-.6.2-.2.1-.3.2-.5.4-.1.2-.2.3-.3.5v-3.3H6v7.9h.6V527c.2.4.4.7.8.9.4.2.8.3 1.2.3.4 0 .8-.1 1.1-.2.3-.2.6-.4.8-.7.2-.3.4-.6.5-1 .1-.4.2-.7.2-1.1 0-.4-.1-.8-.2-1.1-.1-.3-.2-.6-.4-.9zm-.2 3c-.1.3-.2.5-.3.8-.2.2-.3.4-.6.6-.2.1-.5.2-.8.2-.4 0-.7-.1-.9-.2-.3-.1-.5-.3-.6-.6-.2-.2-.3-.5-.3-.8-.1-.3-.1-.6-.1-.9s0-.6.1-.9.2-.5.3-.8l.6-.6c.3-.1.6-.2.9-.2s.6.1.8.2c.2.1.4.3.6.6.2.2.3.5.3.8.1.3.1.6.1.9s0 .6-.1.9zm5.9.1c-.1.4-.3.8-.6 1.1-.3.3-.7.4-1.2.4-.3 0-.6-.1-.9-.2-.2-.1-.4-.3-.6-.5-.1-.2-.3-.5-.3-.7-.1-.3-.1-.5-.1-.8H17c0-.4 0-.8-.1-1.2-.1-.4-.2-.7-.4-1-.2-.3-.5-.5-.8-.7s-.7-.3-1.2-.3-.8.1-1.2.3c-.3.2-.6.4-.8.7-.2.3-.4.6-.5 1-.1.4-.1.7-.1 1.1 0 .4 0 .8.1 1.1.1.3.3.7.5 1s.5.5.8.7.7.2 1.2.2c.7 0 1.3-.2 1.7-.5.4-.4.7-.9.8-1.5h-.7v-.2zm-3.4-2.1c.1-.2.2-.5.4-.6.2-.1.3-.3.6-.5.2-.1.5-.2.8-.2s.5.1.7.2c.2.1.4.3.6.5s.3.4.4.6.1.5.1.8h-3.7c-.1-.3 0-.6.1-.8zm9.6 3.9h.4v-.6h-.2c-.3 0-.4-.1-.4-.4v-3c0-.4-.1-.7-.2-.9-.1-.2-.3-.4-.5-.6-.2-.1-.4-.2-.7-.3-.2 0-.5-.1-.7-.1-.7 0-1.2.2-1.6.5s-.7.8-.7 1.5h.7c0-.5.2-.8.4-1 .3-.2.6-.3 1.1-.3h.6s.3.1.5.2c.1.1.2.2.3.4.1.2.1.3.1.6 0 .2 0 .3-.1.4 0 .1-.1.2-.2.2-.1.1-.2.1-.3.1-.1 0-.2 0-.4.1-.4 0-.7.1-1.1.1s-.7.1-1 .2c-.3.1-.5.3-.7.5s-.3.5-.3.9c0 .3 0 .5.1.7s.2.4.4.5l.6.3c.2.1.5.1.7.1.3 0 .5 0 .7-.1.2-.1.4-.1.5-.2.2-.1.3-.2.4-.4.1-.1.3-.3.4-.5v.4c0 .1.1.2.1.3.1.1.1.2.2.2.6.2.7.2.9.2zm-.9-2.2c0 .3-.1.5-.2.7s-.2.4-.4.6c-.2.2-.4.3-.6.4-.2.1-.5.1-.8.1-.2 0-.3 0-.5-.1s-.3-.1-.4-.2c-.1-.1-.2-.2-.3-.4-.1-.1-.1-.3-.1-.5 0-.3.1-.5.2-.6.2-.2.4-.3.6-.3.3-.1.5-.1.9-.2.3 0 .6-.1.9-.1.1 0 .2 0 .3-.1.1 0 .2-.1.3-.2v.9h.1zm4.3-2.9v-.6h-1.2v-1.7H24v1.7h-1v.6h1v3.9c0 .5.1.8.3 1 .2.2.5.3 1 .3h.6v-.6h-.6s-.4-.1-.5-.2c-.1-.1-.1-.3-.1-.5v-3.8l1.2-.1zm3.3 5.3c.7 0 1.3-.2 1.7-.5.4-.4.7-.9.8-1.5H31c-.1.4-.3.8-.6 1.1-.3.3-.7.4-1.2.4-.3 0-.6-.1-.9-.2-.2-.1-.4-.3-.6-.5-.1-.2-.3-.5-.3-.7-.1-.3-.1-.5-.1-.8h4.4c0-.4 0-.8-.1-1.2-.1-.4-.2-.7-.4-1-.2-.3-.5-.5-.8-.7s-.7-.3-1.2-.3-.8.1-1.2.3c-.3.2-.6.4-.8.7-.2.3-.4.6-.5 1-.1.4-.1.7-.1 1.1 0 .4 0 .8.1 1.1.1.4.3.7.5 1s.5.5.8.7.8 0 1.2 0zm-1.7-4.1c.1-.2.2-.5.4-.6.2-.2.3-.3.6-.5.2-.1.5-.2.8-.2s.5.1.7.2c.2.1.4.3.6.5s.3.4.4.6.1.5.1.8h-3.7c0-.3 0-.6.1-.8zm6.3-.8c.2-.2.3-.3.6-.4.2-.1.5-.1.7-.1.3 0 .5 0 .7.1.2.1.3.2.4.4.1.2.2.3.2.5s.1.4.1.7v3.5h.7v-3.7c0-.3 0-.6-.1-.9s-.2-.5-.3-.7c-.2-.2-.4-.3-.6-.4-.3-.1-.6-.2-1-.2-.2 0-.4 0-.6.1-.2.1-.4.1-.5.2-.2.1-.3.2-.4.4-.1.1-.2.3-.3.5v-1h-.7v5.7h.7v-3.3c0-.3.1-.5.1-.8 0-.2.2-.4.3-.6zm8.2-2.6v1.7h-1v.6h1v3.9c0 .5.1.8.3 1s.5.3 1 .3h.6v-.7h-.6c-.2 0-.4-.1-.5-.2-.1-.1-.1-.3-.1-.5v-3.8h1.2v-.6h-1.2v-1.7H42zm3.5 3v-1.3h-.6v5.7h.7v-3c0-.3.1-.6.2-.8.1-.3.2-.5.4-.7s.4-.3.7-.4c.3-.1.5-.1.9-.1v-.7c-.5 0-1 .1-1.3.3-.5.2-.8.5-1 1zm6.2.8c-.1.1-.2.1-.3.1s-.2 0-.4.1c-.4 0-.7.1-1.1.1-.4 0-.7.1-1 .2-.3.1-.5.3-.7.5s-.3.5-.3.9c0 .3 0 .5.1.7s.2.4.4.5l.6.3c.2.1.5.1.7.1.3 0 .5 0 .7-.1.2-.1.4-.1.5-.2.2-.1.3-.2.4-.4.1-.1.3-.3.4-.5v.4c0 .1.1.2.1.3.1.1.1.2.2.2s.2.1.4.1h.4v-.6h-.2c-.3 0-.4-.1-.4-.4v-3c0-.4-.1-.7-.2-.9-.1-.2-.3-.4-.5-.6-.2-.1-.4-.2-.7-.3-.2 0-.5-.1-.7-.1-.7 0-1.2.2-1.6.5-.4.3-.7.8-.7 1.5h.7c0-.5.2-.8.4-1 .3-.2.6-.3 1.1-.3h.6c.2 0 .3.1.5.2.1.1.2.2.3.4s.1.3.1.6c0 .2 0 .3-.1.4.5.2.4.3.3.3zm.3.4v.9c0 .3-.1.5-.2.7-.1.2-.2.4-.4.6s-.4.3-.6.4c-.2.1-.5.1-.8.1-.2 0-.3 0-.5-.1s-.3-.1-.4-.2c-.1-.1-.2-.2-.3-.4-.1-.1-.1-.3-.1-.5 0-.3.1-.5.2-.6.2-.2.4-.3.6-.3.3-.1.5-.1.9-.2.3 0 .6-.1.9-.1.1 0 .2 0 .3-.1.2 0 .3-.1.4-.2zm3.3 3.1c.3.2.7.2 1.1.2.6 0 1.2-.2 1.6-.6.4-.4.7-.9.8-1.6h-.7c0 .2-.1.5-.2.6-.1.2-.2.4-.4.5-.1.1-.3.3-.5.3-.2.1-.4.1-.6.1-.3 0-.6-.1-.9-.2-.2-.1-.5-.3-.6-.6-.2-.2-.3-.5-.4-.8-.1-.3-.1-.6-.1-.9s0-.6.1-.9.2-.5.4-.8l.6-.6c.2-.1.5-.2.9-.2.5 0 .8.1 1.1.4.3.2.4.6.5 1h.7c-.1-.7-.3-1.1-.8-1.5-.4-.3-.9-.5-1.5-.5-.4 0-.8.1-1.1.2-.3.2-.6.4-.8.6-.2.3-.4.6-.5 1-.1.4-.2.8-.2 1.2s.1.8.2 1.2c.1.4.3.7.5 1 .2.5.5.7.8.9zm9.2-5.6h-.9l-3.1 2.8v-4.9h-.7v7.9h.7v-2.2l1.1-.9 2.2 3.1h.9l-2.6-3.6 2.4-2.2zm7.5 0l-1.8 5-1.8-5h-.8l2.2 5.7h.7l2.1-5.7H72zm3.7 5.7c.2-.1.4-.1.5-.2.2-.1.3-.2.4-.4.1-.1.3-.3.4-.5v.4c0 .1.1.2.1.3.1.1.1.2.2.2s.2.1.4.1h.4v-.6h-.2c-.3 0-.4-.1-.4-.4v-3c0-.4-.1-.7-.2-.9-.1-.2-.3-.4-.5-.6-.2-.1-.4-.2-.7-.3-.2 0-.5-.1-.7-.1-.7 0-1.2.2-1.6.5-.4.3-.7.8-.7 1.5h.7c0-.5.2-.8.4-1 .3-.2.6-.3 1.1-.3h.6c.2 0 .3.1.5.2.1.1.2.2.3.4.1.2.1.3.1.6 0 .2 0 .3-.1.4 0 .1-.1.2-.2.2-.1.1-.2.1-.3.1s-.2 0-.4.1c-.4 0-.7.1-1.1.1-.4 0-.7.1-1 .2-.3.1-.5.3-.7.5s-.3.5-.3.9c0 .3 0 .5.1.7s.2.4.4.5l.6.3c.2.1.5.1.7.1.8.1 1 .1 1.2 0zm-1.5-.8c-.1-.1-.2-.2-.3-.4-.1-.1-.1-.3-.1-.5 0-.3.1-.5.2-.6.2-.2.4-.3.6-.3.3-.1.5-.1.9-.2.3 0 .6-.1.9-.1.1 0 .2 0 .3-.1.1 0 .2-.1.3-.2v.9c0 .3-.1.5-.2.7-.1.2-.2.4-.4.6s-.4.3-.6.4c-.2.1-.5.1-.8.1-.2 0-.3 0-.5-.1-.1 0-.2-.1-.3-.2zm8.8-.6c-.1.2-.2.4-.4.5-.1.1-.3.3-.5.3-.2.1-.4.1-.6.1-.3 0-.6-.1-.9-.2-.2-.1-.5-.3-.6-.6-.2-.2-.3-.5-.4-.8-.1-.3-.1-.6-.1-.9s0-.6.1-.9.2-.5.4-.8l.6-.6c.2-.1.5-.2.9-.2.5 0 .8.1 1.1.4.3.2.4.6.5 1h.7c-.1-.7-.3-1.1-.8-1.5-.4-.3-.9-.5-1.5-.5-.4 0-.8.1-1.1.2-.3.2-.6.4-.8.6-.2.3-.4.6-.5 1-.1.4-.2.8-.2 1.2 0 .4.1.8.2 1.2.1.4.3.7.5 1s.5.5.8.6c.3.2.7.2 1.1.2.6 0 1.2-.2 1.6-.6.4-.4.7-.9.8-1.6h-.7c-.1.4-.1.7-.2.9zm4.7 1.2c.2-.1.3-.2.4-.4.1-.2.3-.3.4-.5v.4c0 .1.1.2.1.3.1.1.1.2.2.2s.2.1.4.1h.4v-.6h-.2c-.3 0-.4-.1-.4-.4v-3c0-.4-.1-.7-.2-.9-.1-.2-.3-.4-.5-.6-.2-.1-.4-.2-.7-.3-.2 0-.5-.1-.7-.1-.7 0-1.2.2-1.6.5-.4.3-.7.8-.7 1.5h.7c0-.5.2-.8.4-1 .3-.2.6-.3 1.1-.3h.6c.2 0 .3.1.5.2s.2.2.3.4c.1.2.1.3.1.6 0 .2 0 .3-.1.4 0 .1-.1.2-.2.2-.1.1-.2.1-.3.1s-.2 0-.4.1c-.4 0-.7.1-1.1.1-.4 0-.7.1-1 .2-.3.1-.5.3-.7.5s-.3.5-.3.9c0 .3 0 .5.1.7s.2.4.4.5l.6.3c.2.1.5.1.7.1.3 0 .5 0 .7-.1.6.1.8 0 1-.1zm-1.7-.4c-.2-.1-.3-.1-.4-.2-.1-.1-.2-.2-.3-.4-.1-.1-.1-.3-.1-.5 0-.3.1-.5.2-.6.2-.2.4-.3.6-.3.3-.1.5-.1.9-.2.3 0 .6-.1.9-.1.1 0 .2 0 .3-.1.1 0 .2-.1.3-.2v.9c0 .3-.1.5-.2.7-.1.2-.2.4-.4.6s-.4.3-.6.4c-.2.1-.5.1-.8.1-.1 0-.2 0-.4-.1zm6.8.6v-.6h-.6c-.2 0-.4-.1-.5-.2-.1-.1-.1-.3-.1-.5v-3.8h1.2v-.6h-1.2v-1.7h-.7v1.7h-1v.6h1v3.9c0 .5.1.8.3 1s.5.3 1 .3h.3c.1-.1.2-.1.3-.1zm1.7-7.9h-.7v1.1h.7v-1.1zm-.7 7.8h.7v-5.7h-.7v5.7zm6.4-.7c.2-.3.4-.6.5-1 .1-.4.2-.7.2-1.2 0-.4-.1-.8-.2-1.2-.1-.4-.3-.7-.5-1s-.5-.5-.8-.6c-.3-.2-.7-.2-1.1-.2-.4 0-.8.1-1.1.2-.3.2-.6.4-.8.6-.2.3-.4.6-.5 1-.1.4-.2.8-.2 1.2s.1.8.2 1.2c.1.4.3.7.5 1s.5.5.8.6c.3.2.7.2 1.1.2.4 0 .8-.1 1.1-.2.3-.1.6-.3.8-.6zm-2 .3c-.3 0-.6-.1-.9-.2-.2-.1-.5-.3-.6-.6-.2-.2-.3-.5-.4-.8-.1-.3-.1-.6-.1-.9s0-.6.1-.9.2-.5.4-.8l.6-.6c.2-.1.5-.2.9-.2s.6.1.9.2c.2.1.5.3.6.6.2.2.3.5.4.8.1.3.1.6.1.9s0 .6-.1.9-.2.5-.4.8l-.6.6c-.3.2-.6.2-.9.2zm7.9-4.8c-.2-.2-.4-.3-.6-.4-.3-.1-.6-.2-1-.2-.2 0-.4 0-.6.1-.2.1-.4.1-.5.2-.2.1-.3.2-.4.4-.1.1-.2.3-.3.5v-1h-.7v5.7h.7v-3.3c0-.3.1-.5.1-.8.1-.2.2-.4.4-.6s.3-.3.6-.4c.2-.1.5-.1.7-.1.3 0 .5 0 .7.1.2.1.3.2.4.4.1.2.2.3.2.5s.1.4.1.7v3.5h.7v-3.7c0-.3 0-.6-.1-.9-.1-.3-.2-.5-.4-.7zm5.3 5c.2-.1.4-.3.5-.5s.2-.5.2-.8c0-.2 0-.5-.1-.6-.1-.2-.2-.3-.4-.5-.2-.1-.3-.2-.5-.3-.2-.1-.4-.1-.6-.2l-.9-.2c-.1 0-.2-.1-.4-.1-.1 0-.3-.1-.4-.2l-.3-.3s-.1-.2-.1-.4 0-.3.1-.5l.3-.3c.1-.1.3-.1.4-.2h.5s.4 0 .6.1c.2 0 .3.1.5.2.1.1.2.2.3.4s.1.3.1.6h.7c0-.3-.1-.6-.2-.8-.1-.2-.3-.4-.4-.6-.2-.2-.4-.3-.6-.3-.2-.1-.5-.1-.8-.1-.2 0-.5 0-.8.1-.3.1-.5.2-.7.3s-.4.3-.5.5-.2.5-.2.7 0 .4.1.6.2.3.3.4c.1.1.3.2.5.3s.4.1.6.2l.9.2c.2 0 .3.1.5.1.2.1.3.1.4.2l.3.3c.1.1.1.3.1.4 0 .2 0 .4-.1.5-.1.1-.2.2-.4.3s-.3.2-.5.2-.4.1-.5.1c-.5 0-.8-.1-1.2-.4-.3-.2-.5-.6-.5-1.1h-.7c.1.7.3 1.2.7 1.5s1 .5 1.6.5c.3 0 .5 0 .8-.1.3.1.6 0 .8-.2zm2.1.2h.9v-1.2h-.9v1.2zm12.5-.9l-1.9-6.9h-.9l-1.9 6.9-1.8-6.9h-.8l2.2 7.9h.8l2-7 2 7h.8l2.2-7.9h-.7l-2 6.9zm7.4-4.3c-.2-.2-.4-.3-.6-.4-.3-.1-.6-.2-1-.2-.2 0-.4 0-.6.1-.2.1-.4.1-.5.2-.2.1-.3.2-.4.4-.1.1-.2.3-.3.5v-3.2h-.7v7.9h.7v-3.3c0-.3.1-.5.1-.8.1-.2.2-.4.4-.6s.3-.3.6-.4c.2-.1.5-.1.7-.1.3 0 .5 0 .7.1.2.1.3.2.4.4.1.2.2.3.2.5s.1.4.1.7v3.5h.7v-3.7c0-.3 0-.6-.1-.9-.1-.3-.3-.5-.4-.7zm4 5.3c.2-.1.4-.1.5-.2.2-.1.3-.2.4-.4.1-.1.3-.3.4-.5v.4c0 .1.1.2.1.3.1.1.1.2.2.2s.2.1.4.1h.4v-.6h-.2c-.3 0-.4-.1-.4-.4v-3c0-.4-.1-.7-.2-.9-.1-.2-.3-.4-.5-.6-.2-.1-.4-.2-.7-.3-.2 0-.5-.1-.7-.1-.7 0-1.2.2-1.6.5-.4.3-.7.8-.7 1.5h.7c0-.5.2-.8.4-1 .3-.2.6-.3 1.1-.3h.6c.2 0 .3.1.5.2.1.1.2.2.3.4.1.2.1.3.1.6 0 .2 0 .3-.1.4 0 .1-.1.2-.2.2-.1.1-.2.1-.3.1s-.2 0-.4.1c-.4 0-.7.1-1.1.1-.4 0-.7.1-1 .2-.3.1-.5.3-.7.5s-.3.5-.3.9c0 .3 0 .5.1.7s.2.4.4.5l.6.3c.2.1.5.1.7.1.8.1 1 .1 1.2 0zm-1.5-.8c-.1-.1-.2-.2-.3-.4-.1-.1-.1-.3-.1-.5 0-.3.1-.5.2-.6.2-.2.4-.3.6-.3.3-.1.5-.1.9-.2.3 0 .6-.1.9-.1.1 0 .2 0 .3-.1.1 0 .2-.1.3-.2v.9c0 .3-.1.5-.2.7-.1.2-.2.4-.4.6s-.4.3-.6.4c-.2.1-.5.1-.8.1-.2 0-.3 0-.5-.1 0 0-.2-.1-.3-.2zm6-6.6h-.7v1.7h-1v.6h1v3.9c0 .5.1.8.3 1s.5.3 1 .3h.6v-.7h-.6c-.2 0-.4-.1-.5-.2-.1-.1-.1-.3-.1-.5v-3.8h1.2v-.6h-1.2v-1.7zm6.9 3.5c-.1-.4-.2-.7-.4-1s-.5-.5-.8-.7-.7-.3-1.2-.3-.8.1-1.2.3c-.3.2-.6.4-.8.7s-.4.6-.5 1c-.1.4-.1.7-.1 1.1 0 .4 0 .8.1 1.1.1.4.3.7.5 1s.5.5.8.7.7.2 1.2.2c.7 0 1.3-.2 1.7-.5.4-.4.7-.9.8-1.5h-.7c-.1.4-.3.8-.6 1.1-.3.3-.7.4-1.2.4-.3 0-.6-.1-.9-.2-.2-.1-.4-.3-.6-.5-.1-.2-.3-.5-.3-.7-.1-.3-.1-.5-.1-.8h4.4c0-.6 0-1-.1-1.4zm-4.3.6c0-.3.1-.5.2-.8.1-.2.2-.5.4-.6.2-.2.3-.3.6-.5.2-.1.5-.2.8-.2s.5.1.7.2c.2.1.4.3.6.5.2.2.3.4.4.6.1.2.1.5.1.8h-3.8zm7.2 2.5l-1.8-5h-.8l2.2 5.7h.7l2.1-5.7h-.7l-1.7 5zm7.9-3.1c-.1-.4-.2-.7-.4-1s-.5-.5-.8-.7-.7-.3-1.2-.3-.8.1-1.2.3c-.3.2-.6.4-.8.7s-.4.6-.5 1c-.1.4-.1.7-.1 1.1 0 .4 0 .8.1 1.1.1.3.3.7.5 1s.5.5.8.7.7.2 1.2.2c.7 0 1.3-.2 1.7-.5.4-.4.7-.9.8-1.5h-.7c-.1.4-.3.8-.6 1.1-.3.3-.7.4-1.2.4-.3 0-.6-.1-.9-.2-.2-.1-.4-.3-.6-.5-.1-.2-.3-.5-.3-.7-.1-.3-.1-.5-.1-.8h4.4c0-.6 0-1-.1-1.4zm-4.3.6c0-.3.1-.5.2-.8.1-.2.2-.5.4-.6.2-.2.3-.3.6-.5.2-.1.5-.2.8-.2s.5.1.7.2c.2.1.4.3.6.5s.3.4.4.6c.1.2.1.5.1.8h-3.8zm6-1.1v-1.3h-.6v5.7h.7v-3c0-.3.1-.6.2-.8.1-.3.2-.5.4-.7s.4-.3.7-.4c.3-.1.5-.1.9-.1v-.7c-.5 0-1 .1-1.3.3-.6.2-.9.5-1 1zm7.8 3.5l-1.9-4.8h-.7l2.3 5.7-.2.6c-.1.1-.1.3-.2.4-.1.1-.1.2-.2.3-.1.1-.2.1-.3.2-.1 0-.2.1-.4.1h-.4v.6h.5c.2 0 .4 0 .5-.1.1 0 .3-.1.4-.2.1-.1.2-.2.3-.4l.3-.6 2.5-6.5h-.7l-1.8 4.7zm7.5-4.1c-.2-.3-.5-.5-.8-.6-.3-.2-.7-.2-1.1-.2-.4 0-.8.1-1.1.2-.3.2-.6.4-.8.6-.2.3-.4.6-.5 1-.1.4-.2.8-.2 1.2 0 .4.1.8.2 1.2.1.4.3.7.5 1s.5.5.8.6c.3.2.7.2 1.1.2.4 0 .8-.1 1.1-.2.3-.2.6-.4.8-.6.2-.3.4-.6.5-1 .1-.4.2-.7.2-1.2 0-.4-.1-.8-.2-1.2-.1-.4-.3-.7-.5-1zm-.1 3c-.1.3-.2.5-.4.8l-.6.6c-.2.1-.5.2-.9.2-.3 0-.6-.1-.9-.2-.2-.1-.5-.3-.6-.6-.2-.2-.3-.5-.4-.8-.1-.3-.1-.6-.1-.9s0-.6.1-.9.2-.5.4-.8l.6-.6c.2-.1.5-.2.9-.2.3 0 .6.1.9.2.2.1.5.3.6.6.2.2.3.5.4.8.1.3.1.6.1.9s0 .6-.1.9zm5.7-.8c0 .3 0 .6-.1.8-.1.3-.2.5-.3.7s-.3.4-.5.5c-.2.1-.5.2-.8.2-.5 0-.9-.1-1.2-.4-.2-.3-.3-.7-.4-1.2v-3.7h-.7v3.7c0 .3 0 .6.1.9s.2.5.3.7c.2.2.4.3.6.4.3.1.6.1.9.1.4 0 .8-.1 1.2-.3.3-.2.6-.5.8-.9v1h.6v-5.7h-.7v3.2h.2zm3.5-2.7c-.4.2-.6.6-.8 1.1v-1.3h-.6v5.7h.7v-3c0-.3.1-.6.2-.8.1-.3.2-.5.4-.7s.4-.3.7-.4c.3-.1.5-.1.9-.1v-.7c-.7-.1-1.1 0-1.5.2zm-196.6 14.1h-.7v1.7h-1v.6h1v3.9c0 .5.1.8.3 1 .2.2.5.3 1 .3h.6v-.7h-.6s-.4-.1-.5-.2c-.1-.1-.1-.3-.1-.5v-3.8h1.2v-.6h-1.2v-1.7zm2.8 3v-1.3h-.6v5.7h.7v-3c0-.3.1-.6.2-.8.1-.3.2-.5.4-.7.2-.2.4-.3.7-.4.3-.1.5-.1.9-.1v-.7c-.5 0-1 .1-1.3.3-.5.2-.8.5-1 1zm7.2 3.3v-3c0-.4-.1-.7-.2-.9-.1-.2-.3-.4-.5-.6-.2-.1-.4-.2-.7-.3-.2 0-.5-.1-.7-.1-.7 0-1.2.2-1.6.5s-.7.8-.7 1.5h.7c0-.5.2-.8.4-1 .3-.2.6-.3 1.1-.3h.6s.3.1.5.2c.1.1.2.2.3.4.1.2.1.3.1.6 0 .2 0 .3-.1.4 0 .1-.1.2-.2.2-.1.1-.2.1-.3.1-.1 0-.2 0-.4.1-.4 0-.7.1-1.1.1s-.7.1-1 .2c-.3.1-.5.3-.7.5s-.3.5-.3.9c0 .3 0 .5.1.7s.2.4.4.5l.6.3c.2.1.5.1.7.1.3 0 .5 0 .7-.1.2-.1.4-.1.5-.2.2-.1.3-.2.4-.4.1-.2.3-.3.4-.5v.4c0 .1.1.2.1.3.1.1.1.2.2.2s.2.1.4.1h.4v-.6H-1c.2.2.1 0 .1-.3zm-.7-1.2c0 .3-.1.5-.2.7s-.2.4-.4.6c-.2.2-.4.3-.6.4-.2.1-.5.1-.8.1-.2 0-.3 0-.5-.1s-.3-.1-.4-.2c-.1-.1-.2-.2-.3-.4-.1-.1-.1-.3-.1-.5 0-.3.1-.5.2-.6.2-.2.4-.3.6-.3.3-.1.5-.1.9-.2.3 0 .6-.1.9-.1.1 0 .2 0 .3-.1.1 0 .2-.1.3-.2v.9h.1zm4 1.5l-1.8-5h-.8l2.2 5.7h.7l2.1-5.7h-.7l-1.7 5zm7.8-3.1c-.1-.4-.2-.7-.4-1-.2-.3-.5-.5-.8-.7s-.7-.3-1.2-.3-.8.1-1.2.3c-.3.2-.6.4-.8.7-.2.3-.4.6-.5 1-.1.4-.1.7-.1 1.1 0 .4 0 .8.1 1.1.1.3.3.7.5 1s.5.5.8.7.7.2 1.2.2c.7 0 1.3-.2 1.7-.5.4-.4.7-.9.8-1.5h-.7c-.1.4-.3.8-.6 1.1-.3.3-.7.4-1.2.4-.3 0-.6-.1-.9-.2-.2-.1-.4-.3-.6-.5-.1-.2-.3-.5-.3-.7-.1-.3-.1-.5-.1-.8h4.4c0-.6 0-1-.1-1.4zm-4.2.6c0-.3.1-.5.2-.8.1-.2.2-.5.4-.6.2-.1.3-.3.6-.5.2-.1.5-.2.8-.2s.5.1.7.2c.2.1.4.3.6.5s.3.4.4.6.1.5.1.8H6zm5.3 3.2h.7v-7.9h-.7v7.9zm9.2-5.2c-.2-.2-.4-.3-.6-.4-.3-.1-.6-.2-1-.2-.2 0-.4 0-.6.1-.2.1-.4.1-.5.2-.2.1-.3.2-.4.4-.1.1-.2.3-.3.5v-1h-.7v5.7h.7v-3.3c0-.3.1-.5.1-.8.1-.2.2-.4.4-.6.2-.2.3-.3.6-.4.2-.1.5-.1.7-.1s.5 0 .7.1c.2.1.3.2.4.4.1.2.2.3.2.5s.1.4.1.7v3.5h.7v-3.7c0-.3 0-.6-.1-.9-.1-.3-.2-.5-.4-.7zm6.4 1.4c-.1-.4-.2-.7-.4-1-.2-.3-.5-.5-.8-.7s-.7-.3-1.2-.3-.8.1-1.2.3c-.3.2-.6.4-.8.7-.2.3-.4.6-.5 1-.1.4-.1.7-.1 1.1 0 .4 0 .8.1 1.1.1.3.3.7.5 1s.5.5.8.7.7.2 1.2.2c.7 0 1.3-.2 1.7-.5.4-.4.7-.9.8-1.5h-.7c-.1.4-.3.8-.6 1.1-.3.3-.7.4-1.2.4-.3 0-.6-.1-.9-.2-.2-.1-.4-.3-.6-.5-.1-.2-.3-.5-.3-.7-.1-.3-.1-.5-.1-.8H27c0-.6 0-1-.1-1.4zm-4.2.6c0-.3.1-.5.2-.8.1-.2.2-.5.4-.6.2-.1.3-.3.6-.5.2-.1.5-.2.8-.2s.5.1.7.2c.2.1.4.3.6.5s.3.4.4.6.1.5.1.8h-3.8zm9.9-.6c-.1-.4-.2-.7-.4-1-.2-.3-.5-.5-.8-.7s-.7-.3-1.2-.3-.8.1-1.2.3c-.3.2-.6.4-.8.7-.2.3-.4.6-.5 1-.1.4-.1.7-.1 1.1 0 .4 0 .8.1 1.1.1.3.3.7.5 1s.5.5.8.7.7.2 1.2.2c.7 0 1.3-.2 1.7-.5.4-.4.7-.9.8-1.5H32c-.1.4-.3.8-.6 1.1-.3.3-.7.4-1.2.4-.3 0-.6-.1-.9-.2-.2-.1-.4-.3-.6-.5-.1-.2-.3-.5-.3-.7-.1-.3-.1-.5-.1-.8h4.4c.1-.6 0-1-.1-1.4zm-4.2.6c0-.3.1-.5.2-.8.1-.2.2-.5.4-.6.2-.1.3-.3.6-.5.2-.1.5-.2.8-.2s.5.1.7.2c.2.1.4.3.6.5s.3.4.4.6.1.5.1.8h-3.8zm9.6-1.4c-.1-.2-.2-.4-.3-.5-.1-.1-.3-.3-.5-.4-.2-.1-.4-.2-.6-.2-.2-.1-.4-.1-.6-.1-.4 0-.8.1-1.1.2-.3.2-.6.4-.8.7-.2.3-.4.6-.5 1-.1.4-.2.7-.2 1.1 0 .4.1.8.2 1.1.1.4.3.7.5 1s.5.5.8.7.7.2 1.1.2c.2 0 .4 0 .6-.1.2-.1.4-.1.6-.3.2-.1.3-.2.5-.4.1-.2.3-.3.3-.5v1.1h.6v-7.9H38v3.3zm-.1 2.7c-.1.3-.2.5-.3.8l-.6.6c-.3.1-.6.2-.9.2s-.6-.1-.8-.2c-.2-.1-.4-.3-.6-.6-.2-.2-.3-.5-.3-.8-.1-.3-.1-.6-.1-.9s0-.6.1-.9.2-.5.3-.8c.2-.2.3-.4.6-.6.2-.1.5-.2.8-.2.4 0 .7.1.9.2.2.1.5.3.6.6.2.2.3.5.3.8.1.3.1.6.1.9s-.1.6-.1.9zm5.9-.7c-.2-.1-.3-.2-.5-.3-.2-.1-.4-.1-.6-.2l-.9-.2c-.1 0-.2-.1-.4-.1-.1 0-.3-.1-.4-.2l-.3-.3s-.1-.2-.1-.4 0-.3.1-.5l.3-.3c.1-.1.3-.1.4-.2h.5s.4 0 .6.1c.2 0 .3.1.5.2.1.1.2.2.3.4s.1.3.1.6h.7c0-.3-.1-.6-.2-.8-.1-.2-.3-.4-.4-.6-.2-.2-.4-.3-.6-.3-.2-.1-.5-.1-.8-.1-.2 0-.5 0-.8.1-.3.1-.5.2-.7.3s-.4.3-.5.5-.2.5-.2.7 0 .4.1.6.2.3.3.4c.1.1.3.2.5.3s.4.1.6.2l.9.2c.2 0 .3.1.5.1.2.1.3.1.4.2l.3.3c.1.1.1.3.1.4 0 .2 0 .4-.1.5-.1.1-.2.2-.4.3s-.3.2-.5.2-.4.1-.5.1c-.5 0-.8-.1-1.2-.4-.3-.2-.5-.6-.5-1.1h-.7c.1.7.3 1.2.7 1.5s1 .5 1.6.5c.3 0 .5 0 .8-.1.3-.1.5-.2.7-.3.2-.1.4-.3.5-.5s.2-.5.2-.8c0-.2 0-.5-.1-.6-.1-.1-.2-.3-.3-.4zm8.9 1.6v-3c0-.4-.1-.7-.2-.9-.1-.2-.3-.4-.5-.6-.2-.1-.4-.2-.7-.3-.2 0-.5-.1-.7-.1-.7 0-1.2.2-1.6.5-.4.3-.7.8-.7 1.5h.7c0-.5.2-.8.4-1 .3-.2.6-.3 1.1-.3h.6c.2 0 .3.1.5.2.1.1.2.2.3.4.1.2.1.3.1.6 0 .2 0 .3-.1.4 0 .1-.1.2-.2.2-.1.1-.2.1-.3.1s-.2 0-.4.1c-.4 0-.7.1-1.1.1-.4 0-.7.1-1 .2-.3.1-.5.3-.7.5s-.3.5-.3.9c0 .3 0 .5.1.7s.2.4.4.5l.6.3c.2.1.5.1.7.1.3 0 .5 0 .7-.1.2-.1.4-.1.5-.2.2-.1.3-.2.4-.4.1-.1.3-.3.4-.5v.4c0 .1.1.2.1.3.1.1.1.2.2.2s.2.1.4.1h.4v-.6h-.2c.2.2.1 0 .1-.3zm-.7-1.2c0 .3-.1.5-.2.7-.1.2-.2.4-.4.6s-.4.3-.6.4c-.2.1-.5.1-.8.1-.2 0-.3 0-.5-.1s-.3-.1-.4-.2c-.1-.1-.2-.2-.3-.4-.1-.1-.1-.3-.1-.5 0-.3.1-.5.2-.6.2-.2.4-.3.6-.3.3-.1.5-.1.9-.2.3 0 .6-.1.9-.1.1 0 .2 0 .3-.1.1 0 .2-.1.3-.2l.1.9zm2.7-2.1v-1.3H54v5.7h.7v-3c0-.3.1-.6.2-.8.1-.3.2-.5.4-.7s.4-.3.7-.4c.3-.1.5-.1.9-.1v-.7c-.5 0-1 .1-1.3.3-.4.2-.7.5-.9 1zm7.3.5c-.1-.4-.2-.7-.4-1s-.5-.5-.8-.7-.7-.3-1.2-.3-.8.1-1.2.3c-.3.2-.6.4-.8.7s-.4.6-.5 1c-.1.4-.1.7-.1 1.1 0 .4 0 .8.1 1.1.1.3.3.7.5 1s.5.5.8.7.7.2 1.2.2c.7 0 1.3-.2 1.7-.5.4-.4.7-.9.8-1.5h-.7c-.1.4-.3.8-.6 1.1-.3.3-.7.4-1.2.4-.3 0-.6-.1-.9-.2-.2-.1-.4-.3-.6-.5-.1-.2-.3-.5-.3-.7-.1-.3-.1-.5-.1-.8h4.4c0-.6 0-1-.1-1.4zm-4.3.6c0-.3.1-.5.2-.8.1-.2.2-.5.4-.6.2-.1.3-.3.6-.5.2-.1.5-.2.8-.2s.5.1.7.2c.2.1.4.3.6.5s.3.4.4.6c.1.2.1.5.1.8h-3.8zm5.7 3.2h.5v.3c0 .1 0 .2-.1.3 0 .1-.1.2-.2.3l-.2.2v.5c.2 0 .3-.1.4-.2.1-.1.2-.2.3-.4.1-.1.1-.3.2-.4 0-.2.1-.3.1-.5V543h-.9l-.1 1.1zm5.9 0h.7v-7.9h-.7v7.9zm2.7-6.6h.5v.3s0 .2-.1.3-.1.2-.2.3l-.2.2v.5c.2 0 .3-.1.4-.2.1-.1.2-.2.3-.4.1-.1.1-.3.2-.4 0-.2.1-.3.1-.5v-1.2h-1v1.1zm8.6.8c-.4 0-.7.1-1.1.3-.3.2-.6.5-.7.8-.1-.4-.3-.7-.6-.8-.3-.2-.6-.3-1-.3-.5 0-.8.1-1.1.3-.3.2-.5.5-.7.8v-1h-.6v5.7h.7v-3.2c0-.3 0-.6.1-.8.1-.3.2-.5.3-.7s.3-.3.5-.4c.2-.1.5-.2.8-.2.2 0 .4 0 .6.1.2.1.3.2.4.3.1.1.2.3.2.5s.1.4.1.5v3.8h.7v-3.2c0-.3 0-.5.1-.8 0-.2.1-.5.2-.7.1-.2.3-.3.5-.5.2-.1.4-.2.7-.2.5 0 .8.1 1 .4.2.2.3.6.3 1.1v3.8h.7v-3.8c-.2-1.1-.8-1.8-2.1-1.8zm10.4.6c-.2-.2-.4-.3-.6-.4-.3-.1-.6-.2-1-.2-.2 0-.4 0-.6.1-.2.1-.4.1-.5.2-.2.1-.3.2-.4.4-.1.1-.2.3-.3.5v-3.2h-.7v7.9h.7v-3.3c0-.3.1-.5.1-.8.1-.2.2-.4.4-.6s.3-.3.6-.4c.2-.1.5-.1.7-.1.3 0 .5 0 .7.1.2.1.3.2.4.4.1.2.2.3.2.5s.1.4.1.7v3.5h.7v-3.7c0-.3 0-.6-.1-.9-.1-.3-.2-.5-.4-.7zm6.4 1.4c-.1-.4-.2-.7-.4-1s-.5-.5-.8-.7-.7-.3-1.2-.3-.8.1-1.2.3c-.3.2-.6.4-.8.7s-.4.6-.5 1c-.1.4-.1.7-.1 1.1 0 .4 0 .8.1 1.1.1.3.3.7.5 1s.5.5.8.7.7.2 1.2.2c.7 0 1.3-.2 1.7-.5.4-.4.7-.9.8-1.5h-.7c-.1.4-.3.8-.6 1.1-.3.3-.7.4-1.2.4-.3 0-.6-.1-.9-.2-.2-.1-.4-.3-.6-.5-.1-.2-.3-.5-.3-.7-.1-.3-.1-.5-.1-.8h4.4c.1-.6 0-1-.1-1.4zm-4.2.6c0-.3.1-.5.2-.8.1-.2.2-.5.4-.6.2-.2.3-.3.6-.5.2-.1.5-.2.8-.2s.5.1.7.2c.2.1.4.3.6.5s.3.4.4.6c.1.2.1.5.1.8h-3.8zm5.9-1.1v-1.3h-.6v5.7h.7v-3c0-.3.1-.6.2-.8.1-.3.2-.5.4-.7s.4-.3.7-.4c.3-.1.5-.1.9-.1v-.7c-.5 0-1 .1-1.3.3-.5.2-.8.5-1 1zm7.3.5c-.1-.4-.2-.7-.4-1s-.5-.5-.8-.7-.7-.3-1.2-.3-.8.1-1.2.3c-.3.2-.6.4-.8.7s-.4.6-.5 1c-.1.4-.1.7-.1 1.1 0 .4 0 .8.1 1.1.1.3.3.7.5 1s.5.5.8.7.7.2 1.2.2c.7 0 1.3-.2 1.7-.5.4-.4.7-.9.8-1.5h-.7c-.1.4-.3.8-.6 1.1-.3.3-.7.4-1.2.4-.3 0-.6-.1-.9-.2-.2-.1-.4-.3-.6-.5-.1-.2-.3-.5-.3-.7-.1-.3-.1-.5-.1-.8h4.4c0-.6 0-1-.1-1.4zm-4.3.6c0-.3.1-.5.2-.8.1-.2.2-.5.4-.6.2-.1.3-.3.6-.5.2-.1.5-.2.8-.2s.5.1.7.2c.2.1.4.3.6.5s.3.4.4.6c.1.2.1.5.1.8h-3.8zm9.5-4.1h-.7v1.7h-1v.6h1v3.9c0 .5.1.8.3 1s.5.3 1 .3h.6v-.7h-.6c-.2 0-.4-.1-.5-.2-.1-.1-.1-.3-.1-.5v-3.8h1.2v-.6h-1.2v-1.7zm6.6 2.4c-.2-.3-.5-.5-.8-.6-.3-.2-.7-.2-1.1-.2-.4 0-.8.1-1.1.2-.3.2-.6.4-.8.6-.2.3-.4.6-.5 1-.1.4-.2.8-.2 1.2 0 .4.1.8.2 1.2.1.4.3.7.5 1s.5.5.8.6c.3.1.7.2 1.1.2.4 0 .8-.1 1.1-.2.3-.2.6-.4.8-.6.2-.3.4-.6.5-1 .1-.4.2-.7.2-1.2 0-.4-.1-.8-.2-1.2s-.3-.7-.5-1zm-.2 3c-.1.3-.2.5-.4.8l-.6.6c-.2.1-.5.2-.9.2-.3 0-.6-.1-.9-.2-.2-.1-.5-.3-.6-.6-.2-.2-.3-.5-.4-.8-.1-.3-.1-.6-.1-.9s0-.6.1-.9.2-.5.4-.8l.6-.6c.2-.1.5-.2.9-.2.3 0 .6.1.9.2.2.1.5.3.6.6.2.2.3.5.4.8.1.3.1.6.1.9.1.3 0 .6-.1.9zm9.1-3.3c-.2-.2-.4-.3-.6-.4-.3-.1-.6-.2-1-.2-.2 0-.4 0-.6.1-.2.1-.4.1-.5.2-.1.1-.3.2-.4.4-.1.1-.2.3-.3.5v-3.2h-.7v7.9h.7v-3.3c0-.3.1-.5.1-.8.1-.2.2-.4.4-.6s.3-.3.6-.4c.2-.1.5-.1.7-.1.3 0 .5 0 .7.1.2.1.3.2.4.4.1.2.2.3.2.5s.1.4.1.7v3.5h.7v-3.7c0-.3 0-.6-.1-.9-.1-.3-.2-.5-.4-.7zm6.4 1.4c-.1-.4-.2-.7-.4-1s-.5-.5-.8-.7-.7-.3-1.2-.3-.8.1-1.2.3c-.3.2-.6.4-.8.7s-.4.6-.5 1c-.1.4-.1.7-.1 1.1 0 .4 0 .8.1 1.1.1.3.3.7.5 1s.5.5.8.7.7.2 1.2.2c.7 0 1.3-.2 1.7-.5.4-.4.7-.9.8-1.5h-.7c-.1.4-.3.8-.6 1.1-.3.3-.7.4-1.2.4-.3 0-.6-.1-.9-.2-.2-.1-.4-.3-.6-.5-.1-.2-.3-.5-.3-.7-.1-.3-.1-.5-.1-.8h4.4c0-.6 0-1-.1-1.4zm-4.3.6c0-.3.1-.5.2-.8.1-.2.2-.5.4-.6.2-.1.3-.3.6-.5.2-.1.5-.2.8-.2s.5.1.7.2c.2.1.4.3.6.5s.3.4.4.6.1.5.1.8h-3.8zm5.4 3.2h.7v-7.9h-.7v7.9zm6.6-4.9c-.2-.3-.5-.5-.8-.7s-.7-.2-1.1-.2c-.5 0-.9.1-1.2.3-.4.2-.6.5-.8.9v-1.1h-.6v7.8h.7V543c.1.2.2.4.3.5.1.1.3.3.5.4.2.1.4.2.6.2.2.1.4.1.6.1.4 0 .8-.1 1.1-.2.3-.2.6-.4.8-.7s.4-.6.5-1c.1-.4.2-.7.2-1.1 0-.4-.1-.8-.2-1.1l-.6-.9zm-.2 3c-.1.3-.2.5-.3.8-.2.2-.3.4-.6.6-.2.1-.5.2-.8.2-.4 0-.7-.1-.9-.2-.3-.1-.5-.3-.6-.6-.2-.2-.3-.5-.3-.8-.1-.3-.1-.6-.1-.9s0-.6.1-.9.2-.6.3-.8c.2-.2.4-.4.6-.5.3-.1.6-.2 1-.2.3 0 .6.1.8.2.2.1.4.3.6.6.2.2.3.5.3.8.1.3.1.6.1.9-.1.2-.1.5-.2.8zm2.3 1.9h.9v-1.2h-.9v1.2z"/><path fill="#FFF" d="M-176.8 234.1c.1-1 .3-2 .6-2.9.3-.9.6-1.8 1-2.6s.9-1.6 1.6-2.2c.6-.6 1.3-1.1 2.2-1.5.8-.4 1.8-.5 2.8-.5 1.5 0 2.8.3 3.9 1s2 1.7 2.8 2.9c.7 1.2 1.3 2.7 1.6 4.4.4 1.7.5 3.6.5 5.6 0 .9-.1 1.9-.2 2.8-.1 1-.3 1.9-.6 2.8-.3.9-.6 1.8-1 2.6s-.9 1.5-1.5 2.2c-.6.6-1.3 1.1-2.1 1.5-.8.4-1.7.5-2.8.5-1.1 0-2.1-.2-3-.6-.9-.4-1.7-1-2.3-1.7-.7-.7-1.2-1.5-1.7-2.4s-.8-1.9-1.1-2.9c-.3-1-.5-2-.6-3.1-.1-1-.2-2-.2-3-.1-1-.1-2 .1-2.9zm-6.9 7.3c.2 1.3.6 2.6 1.2 3.8.5 1.2 1.2 2.4 2 3.4.8 1.1 1.8 2 3 2.8s2.5 1.4 4 1.9 3.2.7 5.1.7c1.8 0 3.4-.2 4.8-.7 1.5-.5 2.8-1.1 3.9-1.9 1.2-.8 2.2-1.8 3.1-2.8.9-1.1 1.6-2.2 2.2-3.5.6-1.2 1-2.5 1.3-3.8s.4-2.6.4-3.8-.1-2.5-.4-3.8-.7-2.6-1.2-3.8c-.6-1.2-1.3-2.4-2.1-3.4-.8-1.1-1.8-2-3-2.8s-2.5-1.4-4-1.9-3.1-.7-4.9-.7-3.4.2-4.9.7-2.8 1.1-4 1.9c-1.2.8-2.2 1.7-3.1 2.8s-1.6 2.2-2.2 3.4-1 2.5-1.3 3.8-.4 2.6-.4 3.8c.1 1.3.2 2.6.5 3.9zM-127.2 230.3h-2.5c-.2.1-.4.3-.8.5-.3.2-.8.3-1.4.4-.6.1-1.2.2-2 .3s-1.7.1-2.7.1v3.4l3.2-.1c-.1.7-.1 1.4-.1 2.1V247.7c-.3.3-.6.6-.9.8-.3.3-.7.5-1.1.7s-.8.4-1.2.5c-.4.1-.8.2-1.1.2-1.1 0-2-.5-2.5-1.4s-.8-2.4-.8-4.3v-13.8h-2.5c-.2.1-.4.3-.8.5-.3.2-.8.3-1.4.4-.6.1-1.2.2-2 .3s-1.7.1-2.8.1v3.4l3.2-.1c-.1.7-.1 1.4-.1 2.1v7.1c0 1.7.1 3.2.4 4.5s.7 2.3 1.3 3.1c.6.8 1.4 1.4 2.3 1.8.9.4 2.1.6 3.4.6.7 0 1.4-.1 2-.3s1.2-.4 1.8-.7c.5-.3 1.1-.6 1.6-1s1-.8 1.4-1.2l.2 2.4h8.5V250l-2.9.1c0-.3.1-.7.1-1.1 0-.4 0-.7.1-1.1v-1.8l.1-15.8zM-122.8 234.5h3.1l-.1 10.9c0 1.2.1 2.3.3 3.2.2.9.5 1.7.8 2.3.4.6.8 1.2 1.2 1.6.5.4 1 .7 1.5.9s1 .4 1.6.5c.5.1 1 .1 1.5.1.4 0 .9 0 1.5-.1s1.3-.2 2-.5 1.5-.8 2.3-1.5 1.6-1.6 2.5-2.8l-2.2-2c-.4.6-.8 1.1-1.3 1.5-.4.4-.8.6-1.2.8-.4.2-.7.3-1 .4s-.5.1-.7.1c-.6 0-1-.1-1.4-.4-.4-.3-.6-.6-.8-1-.2-.4-.3-.9-.4-1.4s-.1-1-.1-1.6v-.6-1.8-3.4-5.3l5.7-.1v-3.5h-5.7v-5.7h-3.3c-.2.6-.4 1.2-.8 1.8-.4.7-.8 1.3-1.4 1.8-.5.6-1.1 1-1.8 1.4-.7.4-1.4.6-2.2.6v3.8h.4zM-84.5 219.3c-.2.1-.4.3-.8.5-.3.2-.8.3-1.4.4-.6.1-1.2.2-2 .3s-1.7.1-2.8.1v3.4l3.2-.1c0 .3-.1.7-.1 1.1 0 .4 0 .7-.1 1.1v4.8l-1.8-.6c-.6-.2-1.4-.3-2.2-.3-1.7 0-3.2.3-4.6.9-1.4.6-2.5 1.5-3.5 2.6s-1.7 2.4-2.3 4c-.5 1.5-.8 3.2-.8 5 0 1.7.2 3.3.7 4.7.4 1.4 1.1 2.6 1.9 3.6s1.8 1.8 2.9 2.3 2.3.8 3.7.8c1.1 0 2.2-.2 3.3-.6 1.1-.4 2.1-1.1 3.1-2.2l.2 2.1h8.5v-3.4l-2.9.1c0-.3.1-.7.1-1.1 0-.4 0-.7.1-1.1v-1-27.6h-2.4v.2zm-9.9 29.9c-.6-.5-1.1-1.1-1.5-1.8-.4-.8-.7-1.6-.8-2.6-.2-1-.3-1.9-.3-2.9 0-1.1.1-2.1.3-3.1.2-1 .5-1.9.9-2.7s1-1.4 1.6-1.9c.7-.5 1.5-.8 2.6-.8.7 0 1.3.1 1.8.3.6.2 1 .4 1.3.6v13.5c-.4.6-.9 1.1-1.6 1.5s-1.4.6-2.1.6c-.8 0-1.6-.3-2.2-.7zM-63.3 234c.6.6 1.1 1.3 1.5 2.2s.6 1.9.8 3.1c.2 1.1.2 2.3.2 3.4 0 1-.1 1.9-.2 2.9s-.4 1.8-.7 2.6c-.3.8-.8 1.4-1.3 1.9-.6.5-1.3.7-2.2.7-.9 0-1.7-.3-2.3-.8-.6-.6-1.2-1.3-1.6-2.2s-.7-1.9-.9-3c-.2-1.1-.3-2.3-.3-3.4 0-1 .1-2 .2-2.9.2-1 .4-1.8.8-2.6s.8-1.4 1.4-1.9 1.3-.7 2.2-.8c1 0 1.8.3 2.4.8zm-6.6-3.1c-1.4.6-2.6 1.4-3.6 2.5s-1.8 2.4-2.4 3.9-.9 3.2-.9 5.1c0 1.8.3 3.4.9 4.8.6 1.4 1.4 2.6 2.4 3.6s2.2 1.8 3.6 2.3 2.9.8 4.5.8 3.1-.3 4.5-.9c1.4-.6 2.6-1.4 3.5-2.5 1-1.1 1.8-2.4 2.3-3.9s.8-3.2.8-5.1c0-1.8-.3-3.4-.9-4.8-.6-1.4-1.4-2.6-2.4-3.6s-2.2-1.8-3.6-2.3-2.9-.8-4.5-.8c-1.4 0-2.8.3-4.2.9zM-37.9 234c.6.6 1.1 1.3 1.5 2.2s.6 1.9.8 3.1c.2 1.1.2 2.3.2 3.4 0 1-.1 1.9-.2 2.9s-.4 1.8-.7 2.6c-.3.8-.8 1.4-1.3 1.9-.6.5-1.3.7-2.2.7-.9 0-1.7-.3-2.3-.8-.6-.6-1.2-1.3-1.6-2.2s-.7-1.9-.9-3c-.2-1.1-.3-2.3-.3-3.4 0-1 .1-2 .2-2.9.2-1 .4-1.8.8-2.6s.8-1.4 1.4-1.9 1.3-.7 2.2-.8c1 0 1.8.3 2.4.8zm-6.6-3.1c-1.4.6-2.6 1.4-3.6 2.5s-1.8 2.4-2.4 3.9-.9 3.2-.9 5.1c0 1.8.3 3.4.9 4.8.6 1.4 1.4 2.6 2.4 3.6s2.2 1.8 3.6 2.3 2.9.8 4.5.8 3.1-.3 4.5-.9c1.4-.6 2.6-1.4 3.5-2.5 1-1.1 1.8-2.4 2.3-3.9s.8-3.2.8-5.1c0-1.8-.3-3.4-.9-4.8-.6-1.4-1.4-2.6-2.4-3.6s-2.2-1.8-3.6-2.3-2.9-.8-4.5-.8c-1.3 0-2.8.3-4.2.9zM-12.2 230.4c-.7.3-1.3.6-1.8 1.1-.5.4-1 .9-1.4 1.4s-.8.9-1.1 1.3h-.1l-.2-3.9H-19c-.2.1-.4.3-.8.5-.3.2-.8.3-1.4.4-.6.1-1.2.2-2 .3s-1.7.1-2.8.1v3.4l3.2-.1c-.1.7-.1 1.3-.1 2v9.4c0 .6 0 1.1-.1 1.6 0 .5-.2.9-.3 1.3-.2.4-.4.6-.8.8s-.9.3-1.5.3v2.9h11.8v-3.4l-2.9.1c0-.3.1-.7.1-1.1 0-.4 0-.7.1-1.1v-1-8.1c.1-.4.4-.9.7-1.4.3-.5.7-1 1.1-1.4s.8-.8 1.3-1.1.9-.5 1.4-.5c0 .5.2 1 .4 1.3.2.3.4.6.7.8.3.2.6.3.9.4.3.1.6.1.9.1.6 0 1.1-.1 1.5-.3s.7-.5 1-.8c.2-.3.4-.6.5-1s.2-.7.2-1.1c0-.7-.1-1.2-.3-1.7-.2-.5-.5-.9-.9-1.2s-.8-.5-1.2-.7c-.5-.1-1-.2-1.5-.2-1 .2-1.7.4-2.4.6zM-201.8 289.5c.1.4.3.8.4 1.2s.1.7.1 1c0 .5-.2 1-.5 1.3-.3.3-.9.5-1.7.5v3h12.1V293l-2.6.1c0-.3-.1-.7-.2-1.1-.1-.4-.2-.8-.4-1.3-.1-.4-.3-.8-.4-1.2s-.2-.7-.3-.9l-9.6-24.5h-3.1l-8.8 24.1c-.2.7-.5 1.3-.7 1.9-.2.6-.5 1.2-.9 1.6-.3.5-.7.8-1.1 1.1-.4.3-1 .4-1.6.4v3.1h9.6v-3.6l-3.2.1c.1-.3.2-.6.4-.9.1-.3.3-.7.4-1 .1-.3.3-.7.4-1 .1-.3.2-.6.3-.8l.7-2.1 9.8-.2.9 2.7zm-7.5-11.5c.5-1.4.8-2.6 1.1-3.7.2-1 .4-1.8.5-2.3.1.8.4 1.8.7 2.9.3 1.1.7 2.2 1.1 3.3l2 5.7h-7.5l2.1-5.9zM-171.2 262.5c-.2.1-.4.3-.8.5-.3.2-.8.3-1.4.4-.6.1-1.2.2-2 .3s-1.7.1-2.8.1v3.4l3.2-.1c0 .3-.1.7-.1 1.1 0 .4 0 .7-.1 1.1v4.8l-1.8-.6c-.6-.2-1.4-.3-2.2-.3-1.7 0-3.2.3-4.6.9s-2.5 1.5-3.5 2.6-1.7 2.4-2.3 4c-.5 1.5-.8 3.2-.8 5 0 1.7.2 3.3.7 4.7.4 1.4 1.1 2.6 1.9 3.6s1.8 1.8 2.9 2.3 2.3.8 3.7.8c1.1 0 2.2-.2 3.3-.6 1.1-.4 2.1-1.1 3.1-2.2l.2 2.1h8.5V293l-2.9.1c0-.3.1-.7.1-1.1s0-.7.1-1.1v-1-27.6h-2.4v.2zm-9.8 29.9c-.6-.5-1.1-1.1-1.5-1.8-.4-.8-.7-1.6-.8-2.6-.2-1-.3-1.9-.3-2.9 0-1.1.1-2.1.3-3.1.2-1 .5-1.9.9-2.7.4-.8 1-1.4 1.6-1.9.7-.5 1.5-.8 2.6-.8.7 0 1.3.1 1.8.3.6.2 1 .4 1.3.6V291c-.4.6-.9 1.1-1.6 1.5s-1.4.6-2.1.6c-.9 0-1.6-.3-2.2-.7zM-154.5 274H-165v3.4l1.7-.1c.1.3.1.5.1.7 0 .2.1.4.2.7l.3.9c.1.4.3.8.6 1.4l7.1 15.6h3.9l5.7-14.4c.2-.5.4-1 .6-1.6.3-.6.6-1.1.9-1.7.3-.5.7-1 1.2-1.4.4-.4.9-.6 1.4-.7v-2.9h-8.5v3.4l2.8-.2c-.3.4-.5.9-.8 1.4-.2.5-.5 1.1-.7 1.8l-3.3 9.3-3.8-9.3c-.1-.4-.2-.7-.3-1.1-.1-.3-.1-.7-.1-.9 0-.4.1-.8.3-1 .2-.3.6-.4 1.2-.5V274zM-127.4 276.7c.4.2.8.5 1.2.9.3.4.6.9.8 1.6.2.6.3 1.4.3 2.4h-8.3c.1-.7.3-1.4.5-2.1.2-.6.6-1.2.9-1.6.4-.4.8-.8 1.3-1 .5-.2 1.1-.4 1.8-.4.6-.1 1.1 0 1.5.2zm8.1 3.8c-.3-1.1-.6-2.1-1.1-2.9s-1-1.5-1.7-2.1-1.4-1-2.1-1.4c-.8-.3-1.5-.6-2.4-.7-.8-.1-1.7-.2-2.5-.2-1.7 0-3.2.3-4.6 1-1.4.7-2.6 1.5-3.5 2.7-1 1.1-1.7 2.4-2.3 3.8-.5 1.4-.8 3-.8 4.5 0 1.8.3 3.5.8 4.9.5 1.5 1.3 2.7 2.3 3.8 1 1 2.1 1.8 3.5 2.4s2.9.8 4.5.8c.8 0 1.6-.1 2.5-.2.9-.1 1.8-.4 2.7-.8.9-.4 1.8-1 2.7-1.7.9-.7 1.8-1.7 2.6-2.8l-2-1.9c-.5.6-1.1 1.2-1.6 1.6-.6.4-1.2.8-1.7 1-.6.3-1.1.5-1.7.6s-1.1.2-1.5.2c-1.2 0-2.2-.2-3-.6s-1.5-1-2-1.8-.9-1.7-1.1-2.7-.3-2.2-.3-3.4l14.8-.3c-.1-1.4-.2-2.7-.5-3.8zM-92.5 283.2c0-1.7-.1-3.2-.4-4.5-.3-1.3-.7-2.3-1.3-3.1-.6-.8-1.4-1.4-2.3-1.8-1-.4-2.1-.6-3.5-.6-.5 0-1 .1-1.5.2-.6.1-1.1.3-1.7.5-.6.2-1.2.5-1.7.8-.6.3-1.1.6-1.5 1h-.1l-.2-2.2h-2.2c-.2.1-.4.3-.8.5-.3.2-.8.3-1.4.4-.6.1-1.2.2-2 .3s-1.7.1-2.8.1v3.4l3.2-.1c-.1.7-.1 1.3-.1 2v9.4c0 .6 0 1.1-.1 1.6 0 .5-.2.9-.3 1.3-.2.4-.4.6-.8.8-.4.2-.9.3-1.5.3v2.9h11.8V293l-2.9.1c0-.3.1-.7.1-1.1s0-.7.1-1.1v-1-11c.5-.5 1.1-.8 1.9-1.2.7-.3 1.5-.5 2.2-.5 1.2 0 2.2.5 2.7 1.4.6.9.9 2.4.9 4.3v6.4c0 .6 0 1.1-.1 1.6 0 .5-.2.9-.3 1.3-.2.4-.4.6-.8.8-.4.2-.9.3-1.5.3v2.9h11.8v-3.4l-2.9.1c0-.3.1-.7.1-1.1 0-.4 0-.7.1-1.1v-1-6.5h-.2zM-88.4 277.7h3.1l-.1 10.9c0 1.2.1 2.3.3 3.2.2.9.5 1.7.8 2.3.4.6.8 1.2 1.2 1.6.5.4 1 .7 1.5.9.5.2 1 .4 1.6.5.5.1 1 .1 1.5.1.4 0 .9 0 1.5-.1s1.3-.2 2-.5 1.5-.8 2.3-1.5c.8-.7 1.6-1.6 2.5-2.8l-2.2-2c-.4.6-.8 1.1-1.3 1.5-.4.4-.8.6-1.2.8-.4.2-.7.3-1 .4-.3.1-.5.1-.7.1-.6 0-1-.1-1.4-.4s-.6-.6-.8-1c-.2-.4-.3-.9-.4-1.4s-.1-1-.1-1.6v-.6-1.8-3.4-5.3l5.7-.1V274H-79v-5.7h-3.3c-.2.6-.4 1.2-.8 1.8-.4.7-.8 1.3-1.4 1.8-.5.6-1.1 1-1.8 1.4-.7.4-1.4.6-2.2.6l.1 3.8zM-46.7 273.5h-2.5c-.2.1-.4.3-.8.5-.3.2-.8.3-1.4.4-.6.1-1.2.2-2 .3s-1.7.1-2.7.1v3.4l3.2-.1c-.1.7-.1 1.4-.1 2.1V290.9c-.3.3-.6.6-.9.8-.3.3-.7.5-1.1.7-.4.2-.8.4-1.2.5-.4.1-.8.2-1.1.2-1.1 0-2-.5-2.5-1.4s-.8-2.4-.8-4.3v-13.8H-63c-.2.1-.4.3-.8.5-.3.2-.8.3-1.4.4s-1.2.2-2 .3-1.7.1-2.8.1v3.4l3.2-.1c-.1.7-.1 1.4-.1 2.1v7.1c0 1.7.1 3.2.4 4.5.3 1.3.7 2.3 1.3 3.1.6.8 1.4 1.4 2.3 1.8s2.1.6 3.4.6c.7 0 1.4-.1 2-.3.6-.2 1.2-.4 1.8-.7.5-.3 1.1-.6 1.6-1s1-.8 1.4-1.2l.2 2.4h8.5v-3.4l-2.9.1c0-.3.1-.7.1-1.1s0-.7.1-1.1v-17.6zM-27.6 273.7c-.7.3-1.3.6-1.8 1.1-.5.4-1 .9-1.4 1.4s-.8.9-1.1 1.3h-.1l-.2-3.9h-2.2c-.2.1-.4.3-.8.5-.3.2-.8.3-1.4.4s-1.2.2-2 .3-1.7.1-2.8.1v3.4l3.2-.1c-.1.7-.1 1.3-.1 2v9.4c0 .6 0 1.1-.1 1.6 0 .5-.2.9-.3 1.3-.2.4-.4.6-.8.8-.4.2-.9.3-1.5.3v2.9h11.8v-3.4l-2.9.1c0-.3.1-.7.1-1.1 0-.4 0-.7.1-1.1v-1-8.1c.1-.4.4-.9.7-1.4.3-.5.7-1 1.1-1.4s.8-.8 1.3-1.1c.5-.3.9-.5 1.4-.5 0 .5.2 1 .4 1.3.2.3.4.6.7.8.3.2.6.3.9.4.3.1.6.1.9.1.6 0 1.1-.1 1.5-.3.4-.2.7-.5 1-.8.2-.3.4-.6.5-1s.2-.7.2-1.1c0-.7-.1-1.2-.3-1.7-.2-.5-.5-.9-.9-1.2-.4-.3-.8-.5-1.2-.7-.5-.1-1-.2-1.5-.2-1.1.1-1.8.3-2.4.6zM-7.4 276.7c.4.2.8.5 1.2.9.3.4.6.9.8 1.6.2.6.3 1.4.3 2.4h-8.3c.1-.7.3-1.4.5-2.1.2-.6.6-1.2.9-1.6.4-.4.8-.8 1.3-1 .5-.2 1.1-.4 1.8-.4.6-.1 1.1 0 1.5.2zm8.1 3.8c-.3-1.1-.6-2.1-1.1-2.9s-1-1.5-1.7-2.1-1.4-1-2.1-1.4c-.8-.3-1.5-.6-2.4-.7-.8-.1-1.7-.2-2.5-.2-1.7 0-3.2.3-4.6 1-1.4.7-2.6 1.5-3.5 2.7-1 1.1-1.7 2.4-2.3 3.8-.5 1.4-.8 3-.8 4.5 0 1.8.3 3.5.8 4.9.5 1.5 1.3 2.7 2.3 3.8 1 1 2.1 1.8 3.5 2.4s2.9.8 4.5.8c.8 0 1.6-.1 2.5-.2.9-.1 1.8-.4 2.7-.8.9-.4 1.8-1 2.7-1.7.9-.7 1.8-1.7 2.6-2.8l-2-1.9c-.5.6-1.1 1.2-1.6 1.6-.6.4-1.2.8-1.7 1-.6.3-1.1.5-1.7.6s-1.1.2-1.5.2c-1.2 0-2.2-.2-3-.6s-1.5-1-2-1.8-.9-1.7-1.1-2.7-.3-2.2-.3-3.4l14.8-.3c-.1-1.4-.2-2.7-.5-3.8zM4.6 289l.2 7.7h3.4l-.2-1.4c.4.3.8.5 1.3.7.5.2 1 .4 1.6.6s1.2.3 1.8.4c.6.1 1.3.1 1.9.1 1.1 0 2.1-.1 3-.4 1-.3 1.8-.7 2.6-1.3.8-.6 1.4-1.3 1.8-2.2.5-.9.7-1.9.7-3.1 0-1.1-.2-2-.6-2.8-.4-.8-1-1.5-1.7-2.1s-1.5-1.2-2.5-1.6c-1-.5-2-.9-3.2-1.3-.8-.3-1.5-.5-2.2-.7-.7-.2-1.2-.4-1.7-.7-.5-.2-.9-.5-1.2-.9-.3-.3-.4-.8-.4-1.3 0-.4.1-.8.2-1.1.2-.3.4-.5.7-.7.3-.2.6-.3 1-.4s.7-.1 1.1-.1c.8 0 1.6.1 2.2.4.7.2 1.3.6 1.9 1 .5.4 1 1 1.3 1.6.4.6.6 1.3.7 2.1h2.9v-8h-3.4l.1 1.3c-.4-.3-.8-.5-1.2-.7-.5-.2-.9-.3-1.4-.5-.5-.1-1-.2-1.4-.3-.5-.1-.9-.1-1.3-.1-1.5 0-2.7.2-3.8.6-1.1.4-1.9 1-2.6 1.7-.7.7-1.2 1.5-1.5 2.3-.3.9-.5 1.7-.5 2.6 0 1.2.2 2.2.7 3 .5.8 1.1 1.5 1.9 2.1s1.6 1 2.6 1.4 1.9.8 2.8 1.1c.8.3 1.6.6 2.2.9.7.2 1.2.5 1.6.8.4.3.8.5 1 .8.2.3.3.7.3 1.1 0 .4-.1.7-.3 1-.2.3-.4.5-.7.7-.3.2-.6.3-1 .4-.4.1-.7.1-1.1.1-1 0-1.8-.1-2.7-.4-.8-.2-1.5-.6-2.2-1-.6-.4-1.1-1-1.5-1.6s-.6-1.2-.7-1.9l-2.5.1zM-152.2 325.1h-2.4v-1.2h6.2v1.2h-2.4v8h-1.3v-8h-.1zM-145.4 327.9h2c.5 0 .9-.2 1.1-.5s.4-.6.4-1c0-.5-.2-.8-.4-1.1-.2-.2-.6-.3-1-.3h-2.1v2.9zm-1.3-4.1h3.4c.7 0 1.3.2 1.8.6.6.5.9 1.1.9 2 0 1.3-.6 2.1-1.7 2.6l2 4.1h-1.6l-1.8-4h-1.7v4h-1.3v-9.3zM-134.3 329.8l-1.3-4-1.3 4h2.6zm.4 1.2h-3.3l-.7 2.1h-1.4l3.2-9.3h1.1l3.2 9.3h-1.4l-.7-2.1zM-131.7 323.8h1.4l2 7 2-7h1.4l-2.9 9.3h-1l-2.9-9.3zM-123.2 323.8h5.6v1.3h-4.3v2.6h3.7v1.2h-3.7v2.7h4.3v1.3h-5.6v-9.1zM-115.6 323.8h1.3v7.9h4.3v1.3h-5.6v-9.2zM-101.5 328h3.1v1.9c0 .9-.3 1.7-.9 2.3-.6.6-1.3.9-2.2 1-.7 0-1.3-.2-1.7-.5-.5-.3-.8-.7-1-1.1-.1-.1-.1-.3-.2-.4 0-.1-.1-.3-.1-.5-.1-.4-.1-1.1-.1-2.1 0-1.1 0-1.8.1-2.2.1-.4.2-.7.3-.9.2-.4.6-.8 1-1.1.5-.3 1-.5 1.7-.5.9 0 1.5.3 2.1.8.5.5.9 1.2 1 1.9h-1.4c-.1-.4-.3-.7-.6-1-.3-.3-.7-.4-1.1-.4-.3 0-.6.1-.8.2-.2.1-.4.3-.6.5s-.3.5-.3.8c-.1.3-.1 1-.1 1.9s0 1.5.1 1.9c.1.3.2.6.3.8.1.2.3.3.6.5.2.1.5.2.8.2.5 0 1-.2 1.3-.6s.5-.8.5-1.4v-.5h-1.8V328zM-96.2 323.8h1.3v6c0 .6.2 1.1.5 1.4s.8.5 1.3.5 1-.2 1.3-.5.5-.8.5-1.4v-6h1.3v6.1c0 1-.3 1.7-.9 2.3-.6.6-1.3.9-2.2.9-.9 0-1.6-.3-2.2-.9s-.9-1.3-.9-2.3v-6.1zM-87.5 323.8h1.3v9.3h-1.3v-9.3zM-83.6 323.8h3.1c1.2 0 2.1.5 2.7 1.6.2.3.3.7.4 1.1 0 .4.1 1 .1 2s0 1.7-.1 2.1c0 .2-.1.4-.1.5-.1.2-.2.3-.2.5-.3.4-.6.8-1.1 1.1-.5.3-1 .5-1.7.5h-3l-.1-9.4zm1.3 8h1.6c.8 0 1.3-.3 1.6-.8.1-.2.2-.5.3-.8 0-.3.1-.9.1-1.7 0-.8 0-1.4-.1-1.7 0-.3-.2-.6-.3-.8-.4-.5-.9-.8-1.6-.8h-1.6v6.6zM-67.4 323.8h1.3l4 6.6v-6.6h1.3v9.3h-1.3l-4-6.6v6.6h-1.3v-9.3zM-52.2 330.5c-.2.9-.6 1.5-1.1 2-.6.5-1.2.7-2 .7-.7 0-1.3-.2-1.7-.5-.5-.3-.8-.7-1-1.1-.1-.1-.1-.3-.2-.4 0-.1-.1-.3-.1-.5-.1-.4-.1-1.1-.1-2.1 0-1.1 0-1.8.1-2.2.1-.4.2-.7.3-.9.2-.4.6-.8 1-1.1.5-.3 1-.5 1.7-.5.9 0 1.5.3 2.1.8.5.5.9 1.2 1 1.9h-1.4c-.1-.4-.3-.7-.6-1-.3-.3-.7-.4-1.1-.4-.3 0-.6.1-.8.2-.2.1-.4.3-.6.5s-.3.5-.3.8c-.1.3-.1 1-.1 1.9s0 1.5.1 1.9c.1.3.2.6.3.8.1.2.3.3.6.5.2.1.5.2.8.2.8 0 1.3-.4 1.7-1.3h1.4v-.2zM-50.6 323.8h5.6v1.3h-4.3v2.6h3.7v1.2h-3.7v2.7h4.3v1.3h-5.6v-9.1zM-14.8 328.1l-13.4 3.6 2.9-3.6-2.9-3.6 13.4 3.6z"/><path fill="#FFF" d="M-19.7 328.1h-4l-1.1-1.4 5.1 1.4zM-183.8 328.4l13.4 3.9-2.9-3.9 2.9-3.9-13.4 3.9z"/><path fill="#FFF" d="M-179 328.4h4l1.1-1.5-5.1 1.5zM-321.2 510.5l-5.8 14.4h4l.8-2.1h5.7l.8 2.1h4l-5.8-14.4h-3.7zm3.4 9h-3.2l1.6-4.2 1.6 4.2zM-309 524.9h7.8c2.9 0 4.7-1.7 4.7-4.1 0-1.7-.9-2.8-2.4-3.3 1.1-.6 1.8-1.6 1.8-3 0-2.3-1.6-4-4.7-4h-7.2v14.4zm7.4-5.8c1 0 1.4.5 1.4 1.2 0 .8-.4 1.3-1.4 1.3h-3.7v-2.5h3.7zm-.4-5.2c.8 0 1.2.5 1.2 1.1 0 .6-.4 1.1-1.4 1.1h-3v-2.3l3.2.1zM-293.9 517.7c0 4.1 3.5 7.5 7.6 7.5 4.2 0 7.6-3.4 7.6-7.5s-3.4-7.5-7.6-7.5c-4.1 0-7.6 3.4-7.6 7.5zm3.7 0c0-2.2 1.8-3.9 3.9-3.9 2.2 0 3.9 1.7 3.9 3.9s-1.7 3.9-3.9 3.9c-2.1 0-3.9-1.7-3.9-3.9zM-266 510.5v7.9c0 2.1-1 3.2-3 3.2-1.9 0-2.9-1.1-2.9-3.2v-7.9h-3.7v8.1c0 3.7 2.3 6.6 6.6 6.6s6.6-2.9 6.6-6.6v-8.1h-3.6zM-259.6 514.1h4.5v10.8h3.7v-10.8h4.5v-3.6h-12.7v3.6z"/><path fill="#B3B3B3" d="M-211.6 104.4h1.1v-2.9h2.9v2.9h1.1V98h-1.1v2.6h-2.9V98h-1.1v6.4zM-200.8 98.9c.2.1.5.3.6.6.2.2.3.5.3.8.1.3.1.6.1.9s0 .6-.1.9c-.1.3-.2.6-.3.8l-.6.6c-.2.1-.5.2-.9.2-.3 0-.6-.1-.9-.2-.2-.1-.5-.3-.6-.6-.2-.2-.3-.5-.3-.8-.1-.3-.1-.6-.1-.9s0-.6.1-.9.2-.6.3-.8l.6-.6c.2-.1.5-.2.9-.2s.7.1.9.2zm-2.2-.8c-.4.2-.7.4-1 .7-.3.3-.5.7-.6 1.1-.1.4-.2.8-.2 1.3s.1.9.2 1.3.3.8.6 1.1c.3.3.6.5 1 .7.4.2.8.3 1.3.3s.9-.1 1.3-.3c.4-.2.7-.4 1-.7.3-.3.5-.7.6-1.1s.2-.8.2-1.3-.1-.9-.2-1.3-.3-.8-.6-1.1c-.3-.3-.6-.5-1-.7-.4-.2-.8-.3-1.3-.3-.4 0-.9.1-1.3.3zM-196.9 104.4h1.1v-5l1.8 5h.9l1.8-5v5h1.1V98h-1.6l-1.7 5-1.8-5h-1.6v6.4zM-188.1 104.4h4.7v-1h-3.6v-1.9h3.2v-.9h-3.2v-1.7h3.5v-1h-4.6v6.5zM-163.4 98.7l1.1 3h-2.2l1.1-3zm-3 5.7h.9l.7-1.9h2.7l.7 1.9h.9L-163 98h-.9l-2.5 6.4zM-158.2 98.7h2.2c.2 0 .3.1.4.1l.3.3c.1.1.1.3.1.5 0 .3-.1.6-.3.8-.2.2-.6.3-1 .3h-1.7v-2zm-.9 5.7h3.1c.3 0 .6-.1.8-.2.2-.1.4-.2.6-.4.2-.2.3-.4.4-.6.1-.2.1-.5.1-.7 0-.4-.1-.7-.3-1-.2-.3-.5-.5-.9-.5.3-.1.5-.3.7-.6.2-.2.3-.5.3-.9 0-.3-.1-.6-.2-.8-.1-.2-.3-.4-.5-.5-.1-.1-.2-.1-.4-.1-.1 0-.3-.1-.4-.1H-159v6.4h-.1zm.9-3h2.5c.2 0 .3.1.4.2l.3.3c.1.1.1.3.1.5 0 .4-.1.6-.3.8-.2.2-.5.3-.9.3h-2.1v-2.1zM-151.5 100.2c.1-.3.2-.6.4-.9.2-.3.4-.5.7-.6.3-.2.6-.2 1-.2s.7.1 1 .2c.3.2.5.4.7.6.2.3.3.5.4.9.1.3.1.6.1 1s0 .6-.1 1c-.1.3-.2.6-.4.9-.2.3-.4.5-.7.6-.3.2-.6.2-1 .2s-.7-.1-1-.2c-.3-.2-.5-.4-.7-.6-.2-.3-.3-.5-.4-.9-.1-.3-.1-.6-.1-1s0-.7.1-1zm-.8 2.2c.1.4.3.8.6 1.1.3.3.6.6 1 .7.4.2.8.3 1.3.3s1-.1 1.3-.3c.4-.2.7-.4 1-.7.3-.3.5-.7.6-1.1s.2-.8.2-1.3c0-.4-.1-.9-.2-1.3s-.3-.8-.6-1.1c-.3-.3-.6-.6-1-.7-.4-.2-.8-.3-1.3-.3s-1 .1-1.3.3c-.4.2-.7.4-1 .7-.3.3-.5.7-.6 1.1-.1.4-.2.8-.2 1.3s0 .9.2 1.3zM-139.5 97.9h-.9v4.1c0 .6-.1 1-.4 1.3-.3.3-.7.5-1.2.5-.6 0-1-.1-1.3-.5-.3-.3-.5-.7-.5-1.3v-4.1h-.9v4.1c0 .4.1.8.2 1.1.1.3.3.6.5.8.2.2.5.4.8.5s.7.1 1.1.1c.8 0 1.4-.2 1.9-.6.4-.4.7-1 .7-1.8v-4.2zM-135.9 104.4h.9v-5.7h2.1V98h-5.1v.7h2.1v5.7zM-113.2 98.7l1.1 3h-2.2l1.1-3zm-3 5.7h.9l.7-1.9h2.7l.7 1.9h.9l-2.5-6.4h-.9l-2.5 6.4zM-108 98.7h1.4c.4 0 .7.1 1 .2s.5.3.7.5c.2.2.3.5.4.8.1.3.1.6.1 1s0 .7-.1 1c-.1.3-.2.5-.3.7-.1.2-.3.3-.4.4-.2.1-.3.2-.5.2-.2.1-.3.1-.5.1H-108v-4.9zm-.8 5.7h2.2c.5 0 1-.1 1.4-.2s.7-.4 1-.7c.3-.3.4-.6.6-1.1.1-.4.2-.9.2-1.4 0-1-.3-1.8-.8-2.3s-1.3-.8-2.3-.8h-2.2v6.5h-.1zM-97 97.9h-.9l-1.9 5.6-1.8-5.6h-.9l2.3 6.4h1l2.2-6.4zM-95.6 104.4h4.5v-.8h-3.6v-2.2h3.3v-.7h-3.3v-2h3.6V98h-4.4v6.4h-.1zM-89.4 104.4h.8v-5.2l3.4 5.2h.9V98h-.7v5.2l-3.4-5.2h-.9v6.4h-.1zM-80.7 104.4h.9v-5.7h2.1V98h-5.1v.7h2.1v5.7zM-71.1 97.9h-.9v4.1c0 .6-.1 1-.4 1.3-.3.3-.7.5-1.2.5-.6 0-1-.1-1.3-.5-.3-.3-.5-.7-.5-1.3v-4.1h-.9v4.1c0 .4.1.8.2 1.1.1.3.3.6.5.8.2.2.5.4.8.5s.7.1 1.1.1c.8 0 1.4-.2 1.9-.6.4-.4.7-1 .7-1.8v-4.2zM-69 104.4h.9v-2.8h2.1c.2 0 .4 0 .5.1s.2.1.3.3c.1.1.1.2.2.4 0 .1.1.3.1.4 0 .2 0 .3.1.5v.9s.1.2.1.3h1c-.1-.1-.2-.2-.2-.4 0-.1-.1-.3-.1-.4v-.5-.5c0-.2 0-.3-.1-.4 0-.1-.1-.3-.2-.4l-.3-.3c-.1-.1-.3-.1-.5-.2.4-.1.7-.3.9-.6.2-.3.3-.6.3-1 0-.5-.2-.9-.5-1.2-.3-.3-.8-.5-1.4-.5h-3v6.3h-.2zm.8-3.5v-2.2h2.1c.4 0 .7.1.9.3.2.2.3.5.3.8 0 .2 0 .4-.1.6-.1.1-.2.3-.3.4-.1.1-.3.1-.5.2h-.6l-1.8-.1zM-62.1 104.4h4.5v-.8h-3.6v-2.2h3.3v-.7h-3.3v-2h3.6V98H-62v6.4h-.1zM-51.4 99.8c0-.4-.1-.7-.2-.9-.1-.3-.3-.5-.5-.6-.2-.2-.5-.3-.7-.4-.3-.1-.6-.1-.9-.1s-.6 0-.9.1-.5.2-.7.3c-.2.2-.4.3-.5.6-.1.2-.2.5-.2.8 0 .3.1.5.2.7.1.2.3.4.5.5s.4.2.7.3c.2.1.5.1.8.2.3.1.5.1.8.2.2.1.5.1.7.2.2.1.3.2.5.3.1.1.2.3.2.5s0 .4-.1.6c-.1.1-.2.3-.4.4-.2.1-.3.1-.5.2-.2 0-.4.1-.6.1s-.5 0-.7-.1l-.6-.3s-.3-.3-.4-.5c-.1-.2-.2-.4-.2-.7h-.8c0 .4.1.7.2 1 .1.3.3.5.6.7.2.2.5.3.8.4s.7.1 1 .1.6 0 .9-.1.6-.2.8-.3l.6-.6c.2-.2.2-.5.2-.9 0-.3-.1-.6-.2-.8-.1-.2-.3-.4-.5-.5s-.4-.2-.7-.3c-.2-.1-.5-.2-.8-.2-.3-.1-.5-.1-.8-.2-.2-.1-.5-.1-.7-.2-.2-.1-.4-.2-.5-.3s-.2-.3-.2-.5 0-.4.1-.5.2-.3.3-.3c.1-.1.3-.1.5-.2.2 0 .4-.1.5-.1.4 0 .8.1 1.1.3.3.2.5.5.5 1l.8.1zM-27.9 99.9c0-.3-.1-.6-.3-.9-.2-.3-.4-.5-.6-.7-.2-.2-.5-.3-.8-.4s-.6-.1-1-.1c-.5 0-.9.1-1.3.3-.4.2-.7.4-.9.7-.3.3-.4.7-.6 1.1-.1.4-.2.9-.2 1.3 0 .5.1.9.2 1.3s.3.8.6 1.1c.2.3.6.5.9.7.4.2.8.3 1.3.3.8 0 1.5-.2 1.9-.7.5-.5.8-1.1.8-1.9h-.9c0 .3-.1.5-.2.7-.1.2-.2.4-.4.6-.2.2-.3.3-.6.4-.2.1-.5.1-.8.1-.4 0-.7-.1-1-.2-.3-.1-.5-.3-.7-.6-.2-.2-.3-.5-.4-.9-.1-.3-.1-.7-.1-1 0-.3 0-.7.1-1 .1-.3.2-.6.4-.8.2-.2.4-.4.7-.6s.6-.2 1-.2c.2 0 .4 0 .6.1s.4.1.5.3c.2.1.3.3.4.4.1.2.2.4.2.6h1.2zM-25.4 100.2c.1-.3.2-.6.4-.9.2-.3.4-.5.7-.6.3-.2.6-.2 1-.2s.7.1 1 .2c.3.2.5.4.7.6.2.3.3.5.4.9.1.3.1.6.1 1s0 .6-.1 1c-.1.3-.2.6-.4.9-.2.3-.4.5-.7.6-.3.2-.6.2-1 .2s-.7-.1-1-.2c-.3-.2-.5-.4-.7-.6-.2-.3-.3-.5-.4-.9-.1-.3-.1-.6-.1-1s0-.7.1-1zm-.8 2.2c.1.4.3.8.6 1.1.3.3.6.6 1 .7.4.2.8.3 1.3.3s1-.1 1.3-.3c.4-.2.7-.4 1-.7.3-.3.5-.7.6-1.1s.2-.8.2-1.3c0-.4-.1-.9-.2-1.3s-.3-.8-.6-1.1c-.3-.3-.6-.6-1-.7-.4-.2-.8-.3-1.3-.3s-1 .1-1.3.3c-.4.2-.7.4-1 .7-.3.3-.5.7-.6 1.1-.1.4-.2.8-.2 1.3s.1.9.2 1.3zM-18.5 104.4h.8v-5.2l3.4 5.2h.9V98h-.8v5.2l-3.4-5.2h-.9v6.4zM-9.8 104.4h.9v-5.7h2.1V98h-5.1v.7h2.1v5.7zM-4 98.7l1.1 3h-2.2l1.1-3zm-3 5.7h.9l.7-1.9h2.7l.7 1.9h.9L-3.6 98h-.9l-2.5 6.4zM5.7 99.9c0-.3-.2-.6-.3-.9-.2-.3-.4-.5-.6-.7-.2-.2-.5-.3-.8-.4s-.6-.1-1-.1c-.5 0-.9.1-1.3.3-.4.2-.7.4-.9.7-.3.3-.4.7-.6 1.1-.1.4-.2.9-.2 1.3 0 .5.1.9.2 1.3s.3.8.6 1.1c.2.3.6.5.9.7.4.2.8.3 1.3.3.8 0 1.5-.2 1.9-.7.5-.5.8-1.1.8-1.9h-.9c0 .3-.1.5-.2.7-.1.2-.2.4-.4.6-.2.2-.3.3-.6.4-.2.1-.5.1-.8.1-.4 0-.7-.1-1-.2-.3-.1-.5-.3-.7-.6-.2-.2-.3-.5-.4-.9-.1-.3-.1-.7-.1-1 0-.3 0-.7.1-1 .1-.3.2-.6.4-.8.2-.2.4-.4.7-.6.3-.1.6-.2 1-.2.2 0 .4 0 .6.1s.4.1.5.3c.2.1.3.3.4.4.1.1.2.4.2.6h1.2zM9 104.4h.9v-5.7H12V98H6.9v.7H9v5.7z"/><path fill="#FFF" d="M-71.3 329.8l-1.3-4-1.3 4h2.6zm.4 1.2h-3.3l-.7 2.1h-1.4l3.2-9.3h1.1l3.2 9.3h-1.4l-.7-2.1z"/></svg>